/* XPM */
static char *aW1nb25saW5lLWNvbS11YS1QaWNPblBpYy1NRGFVdUJ0YWJ1MA__[] = {
/* columns rows colors chars-per-pixel */
"64 64 237 2 ",
"   c #7A4516",
".  c #7F4C29",
"X  c #787276",
"o  c #90490E",
"O  c #BA5915",
"+  c #AB4C09",
"@  c #845E32",
"#  c #A65729",
"$  c #8D683C",
"%  c #BD6525",
"&  c #C74A00",
"*  c #CD5502",
"=  c #D25C00",
"-  c #D66300",
";  c #DC6B00",
":  c #D96600",
">  c #DF7100",
",  c #DA700A",
"<  c #DB7817",
"1  c #D66A16",
"2  c #E17500",
"3  c #E57C00",
"4  c #E07D09",
"5  c #E17E16",
"6  c #D4772F",
"7  c #8E6F4F",
"8  c #B07756",
"9  c #8F7C75",
"0  c #C27956",
"q  c #DC931C",
"w  c #D98B18",
"e  c #E78102",
"r  c #E98502",
"t  c #EA8C03",
"y  c #E78609",
"u  c #EC9305",
"i  c #EC9808",
"p  c #E98C15",
"a  c #E58816",
"s  c #EA9216",
"d  c #E79819",
"f  c #F09F07",
"g  c #F2A408",
"h  c #E9A51D",
"j  c #F2AB1C",
"k  c #F5B31F",
"l  c #DD8934",
"z  c #D5943B",
"x  c #D58D2B",
"c  c #E59727",
"v  c #E38C34",
"b  c #E59334",
"n  c #E28F2D",
"m  c #ECA422",
"M  c #E9A727",
"N  c #ECA835",
"B  c #F4B637",
"V  c #F1AB2B",
"C  c #BE8B51",
"Z  c #93896E",
"A  c #948D73",
"S  c #9B8E7B",
"D  c #9B957B",
"F  c #9C9379",
"G  c #8B8474",
"H  c #A89679",
"J  c #A28F6A",
"K  c #B4A37D",
"L  c #AFA07B",
"P  c #D49956",
"I  c #D48C48",
"U  c #E99D42",
"Y  c #E59642",
"T  c #E39956",
"R  c #E08E44",
"E  c #E8A749",
"W  c #EDAB51",
"Q  c #EAA756",
"!  c #F1B65E",
"~  c #F0B558",
"^  c #D0986D",
"/  c #E39D6A",
"(  c #D9AB77",
")  c #D7B87D",
"_  c #DBBC7E",
"`  c #D9B47D",
"'  c #D2A86E",
"]  c #E9A963",
"[  c #EEB466",
"{  c #F1BA66",
"}  c #E6A875",
"|  c #EAB672",
" . c #F1BE71",
".. c #F7C556",
"X. c #F7C44A",
"o. c #DEC17F",
"O. c #F4C26D",
"+. c #F7CC6D",
"@. c #F8CF6E",
"#. c #F9D36F",
"$. c #F4C371",
"%. c #F6CA7C",
"&. c #F9D574",
"*. c #757D8D",
"=. c #7E8591",
"-. c #9D9783",
";. c #878B95",
":. c #9B9999",
">. c #918D8D",
",. c #A19B83",
"<. c #A8998A",
"1. c #A69B97",
"2. c #B99882",
"3. c #9FA09F",
"4. c #A7A18C",
"5. c #A9A48D",
"6. c #B8A586",
"7. c #ACA692",
"8. c #A9A49A",
"9. c #B2AE9A",
"0. c #B3AA99",
"q. c #B6B19D",
"w. c #B9B39D",
"e. c #999CA5",
"r. c #8A94A3",
"t. c #9DA5B3",
"y. c #9DA2AC",
"u. c #A5A4A7",
"i. c #B7AAA5",
"p. c #BAB6A3",
"a. c #BDB9A6",
"s. c #BDBBAA",
"d. c #B5B3A2",
"f. c #A2AAB6",
"g. c #A5ADB9",
"h. c #ADAEB3",
"j. c #AAB2BD",
"k. c #AFB1B2",
"l. c #B8B5B9",
"z. c #B0ADB7",
"x. c #AC9CA5",
"c. c #C3AA85",
"v. c #C7B28A",
"b. c #D7B881",
"n. c #DCBD85",
"m. c #DDBF89",
"M. c #D4B887",
"N. c #C8B898",
"B. c #D2BD93",
"V. c #E2BF85",
"C. c #E0BF89",
"Z. c #E1B782",
"A. c #E0BF94",
"S. c #C1BDAC",
"D. c #C7B9A5",
"F. c #D2BEAB",
"G. c #C2BAB8",
"H. c #E2BFA4",
"J. c #DFC085",
"K. c #DFC08A",
"L. c #D9C296",
"P. c #CFC19B",
"I. c #E1C286",
"U. c #E3C48D",
"Y. c #E9C68B",
"T. c #E6C88A",
"R. c #E9C98D",
"E. c #F8D581",
"W. c #FBDC82",
"Q. c #FADC8C",
"!. c #E4C691",
"~. c #E8C792",
"^. c #E6C992",
"/. c #EACB94",
"(. c #E7C798",
"). c #EBCC98",
"_. c #F9DB93",
"`. c #EFD29A",
"'. c #FCE494",
"]. c #FCE49B",
"[. c #FBE083",
"{. c #C5C1AE",
"}. c #C9C2A9",
"|. c #D8C8A6",
" X c #C5C2B2",
".X c #CAC5B4",
"XX c #CCCABC",
"oX c #CAC6B8",
"OX c #D2CDBD",
"+X c #D7C7B9",
"@X c #DBD5BA",
"#X c #F6DEA6",
"$X c #E5DDB9",
"%X c #F3D9B9",
"&X c #E3D1AE",
"*X c #FDECA6",
"=X c #FCE6A5",
"-X c #F8E8B7",
";X c #FEF3B9",
":X c #EDE3B9",
">X c #AEB5C1",
",X c #B6BBC4",
"<X c #BCC2CB",
"1X c #B6C4D6",
"2X c #C4C6C9",
"3X c #D2CEC2",
"4X c #D4D2C4",
"5X c #D9D6CA",
"6X c #DDDBCC",
"7X c #D8D5C5",
"8X c #C9CCD4",
"9X c #CDD2D9",
"0X c #DEDCD1",
"qX c #D5D7DB",
"wX c #E2DAC8",
"eX c #E1DED3",
"rX c #E5DBD7",
"tX c #E4E1D4",
"yX c #E6E3DA",
"uX c #E9E6DC",
"iX c #EDEADE",
"pX c #E9E1D0",
"aX c #EFE7CE",
"sX c #D9DDE3",
"dX c #C5D2E2",
"fX c #DCE1E7",
"gX c #EEEBE2",
"hX c #E6E7E9",
"jX c #F1EEE2",
"kX c #F2EEE5",
"lX c #F2EEE4",
"zX c #F4F1E5",
"xX c #F5F3EA",
"cX c #FAF5E6",
"vX c #E9ECF2",
"bX c #EEF1F5",
"nX c #F7F6F2",
/* pixels */
"I._ _ _ n.n.n.m.m.V.U.C.U.U.U.Y.!./.b.m.m.m././.!.~.U./.K.U.K.!.T.K.K.K.J.K.^.^.!.!.!.).(.A.A.(.!.C.m.m.U.U.^.^.J.U.T.U.J._ J.J.",
"I.o._ _ m.V.V.V.n.m.m.C.V.C.n.V.m.!.m.m.T.U./.!.^.U.K.~.U.!.K.K.J.K.K.K.J.T.U.K.U.!.!.(.(.A.A.(.!.!.U.!.K.K.U.n.U.U.U.K.J.J.I.I.",
"T.I.I.I.U.T.Y.V.V.Y.U.U.R.U.Y.U.n.U.K.!.^.U.!.!.m.U.U.~.K.n.M.T.T.K.U.U.K.^.T.n.m.m.~.!.!.(.(.!.U.m.m.U.U.K.K.m.U.U.I.K.J.I.J.I.",
"T.R.R.T.T.T.U.U.n.C.m.m.U.U.U.U.U.^.!.U.~.!.m.!.) U.^.^.K.b._ K.K.!.T.U.U.!.^.n.n.K.!.!.(.).(.A.U.U.C.U.U.Y.U.U.U.J.U.T.T.I.J.J.",
"o.T.R.T.Y.Y.~.^.m.U.U.m.m.K.U.Y.U.~./.U.^.K.T.T.!.K.K.U.^.!.J.K.K.^.^.K.n.U.!.m.b.U.!.U.!.!.^.U.!.!.U.U.U.m.U.J.K.U.^.^.R.K.K.J.",
"_ I.Y.T.K.Y.U.!.~././.U.Y.Y.Y.J.m.U.^.U.T.^.K.K.!.B.P.}.{..XOXOX4X7X7XOX.X}.P.K.J.U.T.^.!.!.U.K.~.U.U.C.C.U.U.U.J.K.T.T.T.J.J.J.",
"_ _ I.Y.U.U.U.Y.U.!.U.K.K.J.J.I.m.n.U.n.L.^.N.w.XX7X6XwXtX5XiXjXzXjXjXiXpXtX6X4XXX}.L.^.!.K.K.K.C.m.m.m.U.U.U.T.n._ J.T.K.J.b.J.",
"I._ I.I.U.U.n.K.C.U.U.n._ U.I.I.J.K.T._ 9.{.wXtXwXtXtXtXuX@XjXzXcXjXxXcXcXzXiXyX6X4XXX{.L.K.J.U.U.U.m.m.U.U.Y.U.K.b.M.U.T.T.K.T.",
"U.I.J.U.^.^.^.^.!.U.n.n.n.n.m.C./.R.K.w.6XiXjXjXkXjXkXeXzXkXjXkXiXjXzXzXiXcXkXcX6XyX6X4X.XD.T.U.U.T.T.n.b.U.U.m.J.U.Y.U.^.U.U.^.",
"U.K.U.!./.).^.!./.Y.U.C.C.n.n.I././.9..XjXcXxXnXkXnXzXnXxXkXzXzX7XjXuXjXjXiXkXkXzXjXiXtX@X{.s.K.U.U.T.n.J.U.U.U.K.U.U.U.U.K.K.K.",
"J.K.U.!././.).!./.!.U.U.J.J.I.n.T.M.s.XXzXxXzXjXnXxXxXxX4XxXzXkXzX4XjXjXiXlXjXjXzXgXzXgXtXXX{.s.K.n.J.K.U.U.T.U.T.T.!.m.K.U.U.n.",
"U.U.U.T.^./.(.^.!.U.m.U.J.V.I.I.b.L w..XjXcXnXzXnXjXxXxXzX7XuXkX6XgXiXjXjXuXlXuXzXzXiXzXjXeXXX XP.U.J.U.U.T.U.^.^.T.U.U.U.U.U.U.",
"T.!.!.!.^.!.K.K.K.K.J.K.K.J.I.T.T.Z q. XOXgXxXzXzXkXkX6XuXuXuX5XuXtXhXuXgXgXuXuX6XjXuXkXkXgX0XXXs.T.J.T.T.T.U.^.U.!.U.U.U.U.U.K.",
"n.K.!.T.^.^.T.K.^.K.K.J.U.U.T.J.!.A w. XoX3X4XeXuXyXeX5X7X7X4X5X5XS.0X0XyXuXhXgXgXgXgXkXkXkXgXrX.XB.J.K.U.J.U.T.U.K.^.U.U.K.n.n.",
"J.K.K.!.^.^.^.^.K.K.J.K.T.K.J.J.K.A w.S. XoXOXOXOXOXoXS.{.{. XS.XX4X4X5Xs.qXyXyXyXuX4XgXjXkXkXkX0Xa._ b.J.J.J.J.K.U.U.U.m.n.m.m.",
"!.^.!.K.K.L.^.^.K.J.J.K.^.T.J.J.J.:.4.a.{.{.{.G..X.X XS.s.s.d.d.a.s.S.3X4X5X0XeX0XyXgXgXuXgXgXkXuX.Xn.J.K.J.K.n.K.U.U.U.m.n.U.!.",
").K.J.m.Y.~.~.^.Y.U.C.n.I.T.m.Y.U.i.>.7.p.a.a.p.a.w.S.s.s.a.w.w.q.9.9.p. XXX4X3X0X4XXXiX6X6XiXiXuXoXL.J.b.K.K./.K.U.m.U.U.U.U.^.",
"T.T.U.I.K.T.Y.U.I.I.m.U.Y.Y.Y.J.Y.u.x.9 4.q.w.9.5.4.H ,.D 4.4.5.5.7.9.d.7.-. XoXXXs.0XtXyXiXiXyX6XoXM.U.U.U.K.K.U.^.U.U.U.U.U.U.",
"K.T.T.T.I.m.n.) U.U.V.I.!.R.U.U.Y.c.x.:.<.>.4.9.0.5.,.F A Z Z G Z A D ,.7.4.q.s.oX<X4XsXyXyXXXtX5X{.v.n.n.U.n.U.U.^.T.U.U.U.m.!.",
"T.K.T.L.I.V.m.m.~.U.V.n.U.U.U.U.T.< 6.1.1.i.3X4X<Xh.u.1.3.4.8.8.7.7.-.A A -.5.q.{.d.4X6XtXyXyX0X3X4.6.n.U.!.U.^.U.U.!.m.!.U.U.^.",
"U.m.V.I.U.Y.^.~.Y.U.K.m.I.I.V.I.n.< l z i.0.OXwXpXaXzXzXwXeX0XrXfXeX2X9 -.A ,.5.D  XXX4X6X0XtX6XXXd.6.U.T.~.U.U.U.U.U.U.U.U.U.^.",
"Y.T.m.n.Y.Y.~.U.V.I.I.m.U.U.m.V.n.< T ; 1 I +X4XpXiXcXcX+X+XF.F.D.D.i.0.9 4.G D 7.s.q.<X6X4XtX6XoXq.L K.K.U.K.^.U.U.m.m.U.K.K.^.",
"T.U.V.m.Y.U.R.J.n.I.U.J.U.V.m.U.C.< [ > 2 2 W Z.|.@XpXcX+XF.F.D.D.D.i.0.q.s.D A D d.s.XX4X6XtX7X X9.K b.b.K.U.^.n.m.K.U.U.m.m.U.",
") n.m.I.U.T.U.K.U.Y.I.U.U.m.C.Y.I.n $.2 2 3 ~ { %./.|.$XP T R P I w < , < o.P D ,.7.s. X4X7X4XXXs.7.K T.K.T.K.U.b.b.m.U.U.K.m.U.",
"Y.U.U.n.V.U.U.J.I.C.Y.^.^.V.m.I.R.Q %.> 4 4 ` v.(.%X-XaXE c a 4 2 2 2 ; 5 [ ] Z -.D s.4.XX4X6X.Xd.D M.m.m.U.U.U.U.m.b.m.U.U.U.^.",
"U.Y.T.C.V.U.K.U.Y.J.T.~.Y.m.m.I.Y.| %.r C f.hXqX|.:X:X-XE n a y 3 2 2 2 5  .Q 7 D -.d.s.3X4X4Xs.7.D U.U.U.^.^.!.~.Y.m.U.U.U.m.K.",
"m.I.Y.Y.U.V.U.U.n.m.U.Y.Y.n.m.m.J.J.6.t.hX8Xl.l.9 B.|.&Xz q d y 3 3 3 3 5  .[ $ A D s. X2X.XXXq.,.L U.U.U.U.U.C.K.U.m.U.Y.^.U.U.",
"_ U.^.!.I.U.I.U.n.n.I.U.Y.I.V.I.8.t.sX<XG.%Xi.*.8 ^ `.;Xc w d p r e e 3 a | Q z D A d. XXXOX{.7.F ^.!.U.Y.m.m.m.m.K.K.K.U.~.!.U.",
") C.Y.~.U.U.I.V.C.V.m.I.T.Y.Y.8.9X8Xl.wXF.=.' I P ^ b.#Xc d d p t r e 3 a  .Q Q $ A d.{.XXS.w.-.v.U.U.U.m.U.U.U.m.U.!.U.U.T.U.b.",
") C.Y.T.Y.J.V.m.n.m.m.V.U.U.B.2XnXvXi.=.w u ..+.P ' } A.a q d p t t r e p { ! W I . d.d..X.X5.F K.U.U.K.C.U.U.U.m.m.U.K.U.~.^.U.",
"m.V.n.V.K.T.U.U.I.m.m.V.n.V.e.vXvX=.I ].u u ..+.&.| n.(.q w d s t t r r p  .! W Y 6 5.S..Xp.D n.U.U.K.K.U.U.m.m.) b.n.U.^.^././.",
"C.n.n.n.U./.~.R.T.Y.I.m.K.U.qXfX<X4.W *Xu f ..#.W.]./.).d w q d i t t r p $.Q W N l -.s. X5.L K.K.U.U.U.U.~.!.!.U.U.U.^.^.!.!.U.",
"T.J.b.T./.T.U.T./.!.K.U.U.N.vXfXr.K.| ].g g ..#.[.'.*X*Xd q d d i t t t s $.[ W b v F a.a.F K.K.b.J.!.T.!.~.~.).(.!.!.(.K.!.!.~.",
"J.I.I.J.U.T././.^.^.U.!.!.:.qX9X=.K.K.'.j g ..#.W.'.*X;Xk q h i i u t r s  .! W E l Z S.w.J K.K.!.!.^.K.K.K.m.L.~.!.!.!.L.C.!.K.",
"J.T.T.I.n.U.U.U.^.!.!.U.!.e.8X<Xr.K.T.@.k g ..#.[.'.*X;Xk h M h i u t t s $.! W Y l Z w.7.C !.^.U.K.K.!.m.U.L.K.!.A.!.K.K.K.K.!.",
"J.T.~.T.I.K.U.U.!.^.U.U.K.e.<X<X3.K.L.X...g ..#.[.'.*X;Xk h M g i t u t s $.! W N n 7 S.-.P ^./.K.J.J.K.U.!.!.K.m.m.U.!.K.!.!.L.",
"J.J.T.T.Y./.~.^.U.U.U.m.K.r.,X8Xq.K.K.B &.g ..#.[.'.*X;Xk h M d f u t t s $.! W U b 7 w.F ' K.!.T.K.J.K.T.^.U.U.).T.K.K.K.K.U.K.",
"U.U.I.I.U.U.T.^.U.U.C.U.U.r.>X9X9.U.U.h [.g X.&.[.'.*X;Xj M M h u u t t s $.! W U v @ 0.A ( K.K.J.J.J.T.T.^.!.U.^.L.T.^.U.!.^.K.",
"K.T.T.b.n.U.U.m.!.U.U.m.!.r.j.qX8.^.J.h '.g X.&.[.'.*X;Xk M h h f u t t s $.{ W E n . w.A _ !.^._ J.J.K.T.Y.^.T.K.K.^.^.K.K.^.U.",
"b.!.T.J.n.U.U.b./.!.m.m.K.;.j.fXu.U.I.m ].g B &.[.'.*X;Xj M h d u u t t s +.! W U c   9.F Y.^.).b.J.T.T.L.U.U.U.K.K.T.K.J.J.J.J.",
"J.K.M.T.K./.J.b.U.U.U.K.K.;.j.fXu.I.T.N ].f B #.W.'.=X;Xj N h d u t t r s  .! W U v o 0.A K.^.`.K.Y.T.Y.n.m.m.U.J.J.J.K.K.J.J.o.",
"J.J.K.T.^./.K.J.U.T.U.U.U.;.j.qXy.U.T.N '.i B @.E.'.=X;Xh N q p u t t r s  .! W U v o 0.F K.K.U.K.J.J.m.m.U.U.~.K.K.J.K.J.J.J.J.",
"K.b.K.K.^.^.^.K.T.L.!.K.^.:.j.8Xf./.^.E Q.u V +.E.'.=X;XM N q u t t r e p  .! T U v o w.D U.K.T.U.K.I.n.m.T.~.~.^.K.K.K.T.J.J.o.",
"J.K.T.K.^.U.U.K.R.K.K.K.U.6.j.<X,X/.K.E Q.u M +.&._.=X;XE M c t t t r 3 p  .! W U v o }.-.v.^.(.^.T.U.b.U.Y.~.C.K.K.J.K.R.J.J.o.",
"U.T.^.K.^.K.!.U.K.K.K.K.U.M.g.j.9XL.^.E %.t m +.E._.=X;XW n p t r r e 3 p  .! W U v o @XF ' K.T.U.U.K.n.U./.(.U.~.C.m.V.T.I.I.R.",
"U.U./.K.U.U.!.^.K.K.J.T.!.Y.t.j.fXD.^.b %.t s O.%._.=X$XE n r t r 3 3 3 a  .] W Y l + wXD 6.K.K.T.^.U.U.U.A.U.C.!.C.V.U.T.T.T.Y.",
"^.!.U.U.K.^.U.U.K.b.K.!./.U.r.g.hXk.U.s $.r s $.E._.].aXz q r 3 e 3 3 2 5  .] W R 6 * 5.9.K T.^.^.!.U.^.!.n.m.C.U.C.C.Y.T.T.I.V.",
")./.K.U.K./.U.U.K.K.b.T.!.U.:.g.8XsX!.p { e p +.%._.|.$Xz e 3 3 3 3 2 2 5  .] T Y l *   H ) K.^.U.K.K.^.C.b.m.~.~.C.V.V.V.V.V.I.",
"K.K.J.U.U.!././.!.U.n.n.V.U.M.f.g.bXk.a ! 3 , O.I.P.&X@Xa 3 3 3 2 2 2 ; 5  .] T R v * & & U.T.T.J.U.b.J./.)./.~.~.U.n.b.U.T.I.o.",
"K.b.n.K.!.^./.^.!.U.m.m.m.n.J.:.g.<XhX:.( < P v.P.L.&X:Xa 2 4 2 2 > ; ; <  .] U R 6 * & & K.J.n.J.U.b.K././.!.A.m.m.m.n.n.) o.o.",
"n.K.K.U.!./.!./.U.U.U.U.J.J.J.b.f.g.,XrX+XG.:XG.N.|.`.-Xa 2 2 2 ; ; : : 1 [ ] T R 6 & & O n.K.U.J.I.J.J.!.!.A.m.m.!.U.U.I.o.o.I.",
"!.U.U.!.!.^.!.~.!.!.!.!.T.J.J.J.v.t.g.g.j.G.l.g.7 ^.=X-X5 ; ; : ; : : : 1 | ] T T 6 & & <.m.n.T.I.J.J.U.!.!.U.m.~.!.C.!.T.R.I.o.",
"!.^.U.U.!.U.m.m.U.U.T.!.^.!.J.J.n.m.1.y.t.t.e.9 0 ^ `.aX5 : : : : - - = 1 } / T R 6 & 8 u.U.n.n.R.K.K.T.T.L.!.U.U.U.U.U.I.I.I.o.",
"/.^.^.U.U.U.U.U.U.!.K.U.T.T.J.J.m.U.U.b.X 9 7 # 8 ^ / %X< : = = - = = * 1 } } / 6 + 1.x.<.n.) Y.R.J.K.K.K.J.!.K.U.T.^.U.n.I.o.I.",
"/.T.U.K.U.K.!.!.K.U.K.U.T.K.J.J.U.U.Y.Y.9 X ;.e.. # ^ H./ / / T / T / / Z.Z.% + <.>Xx.>.n.n.U.~.T.b.J.T.K.K.K.K.U.!.T.U.J.J.I.I.",
"U.K.n.) n.n.m.!.U.!.T.K.K.J.I.K./.U.!.A.A.9 9 e.>Xx.<.7 o + & % % % & + # 2.9XdX,Xe.1.Z./.U.U.U.K._ J.R.K.J.U.U.!.m.m.m.J.J.o.o.",
"I.Y.U.b.b.n.m.m.b.n.!.U.U.b.U.U.`.U.m.U.A.m.H >.e.>Xz.l.8XfXvXvXvXvXvXvXsXdX1Xj.g.7.n.!.~.~.^.^.T.J.K.K.K.K.n.J.m.!.m.) m.U.n.Y.",
"I.R.U.m.n.U.C.m.U.L.U.!.U.m.U.T.m.U.m././.C.!.C.S 3.>Xz.h.<X9XsXsXsX9X2X,X,X,X1.v.T.~.C.U.U.m.m.K.J.U.T.U.n.K.K././.U.m.C.U.U.U.",
"b.J.I.m.U.!.^.U.^.U.U.U.K.n.U.U.m.!.U.U.A.m.!.n.V.C.M.,.S 1.l.G.2XG.z.x.<.c.C.m.K.K.U.!.U.C.m.m.U.J.K.J.J.b.J.T./.U.T.m.U.U.^.U.",
"J.I.C.U.!./.^.U.^.!.m.m.K.U.m.K.U./.U.K.b.b.!.A.m.m.Y./.!.K.n.U.Z.C.C.C._ m.U.C.K.K.U.U.U.U.C.!.K._ J.K.U.J.J.^.U.K.U.U.n.U.~.m.",
"T.T.T.U.U.U.C.m./.T.~.!.U.U.U.U.m.~.T.!.!.U./.!.A.C.!.!.U.J.) I.) U.U.U.n.n.T.Y.U.U.!.!.U.K.U.!.T.I.I.T.T.U.U.T.Y.m.U.U.n.U.^.n.",
"U.T.T.U.U.U.!.!./.).).).^.U.K.U.K.!.U.^.!.!.).!.~.C.~.U.U.J.b.J.b.U.J.I.n.n.U.C.U.!.K.U.U.K.U.^./.^.U.U.I.J.J.J.K.U.U.K.m.U.!.K.",
"J.T.R.T.m.m.U./.!.!.!.^.U.m.m.K.~.^.m.m.m.U./.U.!.U./.U.I.T.J.J.m.J.n.I.U.U.U.U.K.m.n.U.!.K.K.^.^.T.J.o._ J.J.K.K.U.K.n.K.!.!.U.",
"J.T./.R.m.b.m.U.U.U.U.U.U.U.m.U.!.U.) m.!.U.).U.Y.U.~.C.J.T.J.J.T.I.n.I.~.U.^.U.K.n.m.U.!.!.K.T.T.T.J._ ) b.T.T.T./.!.n.U.U.K.U."
};
