/* XPM */
static char *_ae6ec4e9fad4b35d1d8c5e79096390a1yug5GpGHSYoXRKH[] = {
/* columns rows colors chars-per-pixel */
"64 64 243 2 ",
"   c #965B29",
".  c #926436",
"X  c #B16C32",
"o  c #B15B1F",
"O  c #C74D03",
"+  c #C95606",
"@  c #D66301",
"#  c #DB6B01",
"$  c #D96701",
"%  c #DE7102",
"&  c #DD750C",
"*  c #D66A18",
"=  c #DB7418",
"-  c #E17500",
";  c #E57C01",
":  c #E37D09",
">  c #E17E16",
",  c #C36C27",
"<  c #C47728",
"1  c #C97436",
"2  c #D47937",
"3  c #987655",
"4  c #AE704A",
"5  c #897A74",
"6  c #DD931B",
"7  c #DA8D19",
"8  c #E78102",
"9  c #E88502",
"0  c #EA8B03",
"q  c #E7890C",
"w  c #EC9205",
"e  c #E9930C",
"r  c #EB990B",
"t  c #E58A15",
"y  c #E78A15",
"u  c #E59B1B",
"i  c #E89717",
"p  c #F09F09",
"a  c #EAA41C",
"s  c #F1A71B",
"d  c #DA8525",
"f  c #CC873A",
"g  c #D98836",
"h  c #DD952E",
"j  c #E48722",
"k  c #E79727",
"l  c #E28D3A",
"z  c #E59539",
"x  c #E79E37",
"c  c #EAA725",
"v  c #F2AB24",
"b  c #F4B327",
"n  c #ECA237",
"m  c #F4B738",
"M  c #EFAD3B",
"N  c #F7C03D",
"B  c #B6825E",
"V  c #B88343",
"C  c #978666",
"Z  c #948D77",
"A  c #9B947C",
"S  c #9A9178",
"D  c #AA866A",
"F  c #A69778",
"G  c #B08C71",
"H  c #AB9268",
"J  c #D98C47",
"K  c #D79747",
"L  c #D79A5A",
"P  c #CF8C54",
"I  c #EA9E43",
"U  c #E59848",
"Y  c #E29551",
"T  c #DFA95A",
"R  c #EBA54E",
"E  c #EDA94E",
"W  c #E9A346",
"Q  c #F3BB48",
"!  c #ECAD5A",
"~  c #E7A556",
"^  c #EEB25B",
"/  c #EAB456",
"(  c #F0B359",
")  c #EFB24B",
"_  c #CC9668",
"`  c #DB9A64",
"'  c #C69C76",
"]  c #C68661",
"[  c #E49E61",
"{  c #DAA867",
"}  c #D7B87D",
"|  c #DBBC7E",
" . c #D5B67E",
".. c #D2A675",
"X. c #E7A965",
"o. c #EDB364",
"O. c #EBB76C",
"+. c #F2BA64",
"@. c #F3BD6A",
"#. c #F1B663",
"$. c #E5B678",
"%. c #F7C246",
"&. c #F6C658",
"*. c #DEC17F",
"=. c #F6C869",
"-. c #F9D36B",
";. c #EDC47B",
":. c #F3C978",
">. c #F9D67A",
",. c #998D89",
"<. c #9D9887",
"1. c #999899",
"2. c #968C8E",
"3. c #A29C85",
"4. c #A79B8A",
"5. c #B39C8C",
"6. c #A69B97",
"7. c #B1958B",
"8. c #ABA48D",
"9. c #A9A187",
"0. c #B7A78A",
"q. c #ACA594",
"w. c #AEA893",
"e. c #ABA59A",
"r. c #B1AB96",
"t. c #B2AD9A",
"y. c #BAA895",
"u. c #B6B19D",
"i. c #BDB49C",
"p. c #BFB193",
"a. c #9AA0AB",
"s. c #9DA4B2",
"d. c #AAA7A6",
"f. c #B7ACA3",
"g. c #BAB6A3",
"h. c #BDB9A6",
"j. c #BEBBAB",
"k. c #B7B4A7",
"l. c #A6ABB5",
"z. c #AEB2B8",
"x. c #B7B6B7",
"c. c #B1AEB5",
"v. c #A09BA2",
"b. c #C2AB88",
"n. c #C8B28A",
"m. c #D5B681",
"M. c #D7B881",
"N. c #DCBD85",
"B. c #D5BA8B",
"V. c #DDBF89",
"C. c #DFB781",
"Z. c #C2AC93",
"A. c #CEBC9B",
"S. c #C9B596",
"D. c #D4BC96",
"F. c #DCAA83",
"G. c #E2BF85",
"H. c #E0BF89",
"J. c #E2B789",
"K. c #E0BF94",
"L. c #C2BDAC",
"P. c #C8BAA5",
"I. c #C3BCB6",
"U. c #D2BEAC",
"Y. c #C99C82",
"T. c #DFC085",
"R. c #DFC08A",
"E. c #DDC293",
"W. c #DAC39A",
"Q. c #D8C49B",
"!. c #E1C286",
"~. c #E3C48D",
"^. c #E9C68B",
"/. c #E6C88A",
"(. c #E9C98D",
"). c #EBC583",
"_. c #F9D987",
"`. c #E4C691",
"'. c #E8C792",
"]. c #E6C992",
"[. c #EACB94",
"{. c #E7C798",
"}. c #E4CA9A",
"|. c #EBCC99",
" X c #F6DA97",
".X c #F0D090",
"XX c #FCE188",
"oX c #FCE495",
"OX c #FDE79A",
"+X c #C9C1AD",
"@X c #D5C4A2",
"#X c #DBC9A3",
"$X c #D8C7A8",
"%X c #C5C2B3",
"&X c #C9C5B6",
"*X c #CAC6B9",
"=X c #CCCABB",
"-X c #CAC6B6",
";X c #D5CAB8",
":X c #DDD2B5",
">X c #E5D3A8",
",X c #E4D8B6",
"<X c #ECD5A2",
"1X c #FDEAA2",
"2X c #FAE8A9",
"3X c #FEF0AF",
"4X c #F8E8B4",
"5X c #EDE1B7",
"6X c #B5BAC3",
"7X c #AFB6C1",
"8X c #C2BDC0",
"9X c #BDC2C9",
"0X c #BEC7D2",
"qX c #C2C6CD",
"wX c #CBCAC9",
"eX c #D1CDC1",
"rX c #DACBC9",
"tX c #D5D2C4",
"yX c #D9D6CA",
"uX c #DCDACD",
"iX c #DBD5C6",
"pX c #CACCD3",
"aX c #CED1D5",
"sX c #DEDCD2",
"dX c #D6D7DB",
"fX c #D1CED1",
"gX c #E2DBC7",
"hX c #E1DED3",
"jX c #EBE2CE",
"kX c #E4E2D5",
"lX c #E6E3D9",
"zX c #E9E6DB",
"xX c #EDEADE",
"cX c #EAE5D4",
"vX c #D9DDE3",
"bX c #DDE0E5",
"nX c #EEEBE1",
"mX c #E6E6E5",
"MX c #F1EEE3",
"NX c #F4F1E4",
"BX c #F5F3EA",
"VX c #F8F6EE",
"CX c #ECEEF3",
/* pixels */
"!.| | | N.N.N.V.V.G.~.~.~.~.H.~.`.[.M.N.V.V.[.[.`.].~.[.V.~.H.].].~.!.~.T.~.^.`.].`.{.}.{.K.K.{.K.~.V.V.~.~.].].T.^./.~.T.*.T.T.",
"!.*.| | R.!.G.G.N.V.V.H.G.V.H.G.V.`.V.G.`.~.[.].]./.V.'.~.`.H.V.!.V.V.V.V.~.^.V.~.R.`.{.{.`.`.`.`.`.H.~.R.R.~.R.~.R.R.~.T.T.!.T.",
"/.!.!.!.~.!.~.G.G.^.~.~./.~./.^.V.~.V.`.].~.`.`.N.~.~.[.V.N.V.~.~.V.~.~.R.`.~.N.R.V.{.`.`.{.{.{.~.V.H.~.~.R.R.T.~.R.!.R.T.!.T.!.",
"/.(.(././.].^.~.N.G.V.V.~.~.^.~.~.].`.~.{.~.V.`.m.~.^.].H.M.M.V.~.~.^.~.~.`.].N.N.R.^.].`.|.{.K.~.~.~.~.`.^.R.~.R.~.~././.!.!.T.",
";./.[.^./.^.].`.H.~.~.H.V.~.~.~.~.[.].~.~.~.~.~.`.~.H.~.[.`.V.V.R.`.[.V.N.R.^.R.m.R.].~.].`.`.R.`.`.~.~.~.V.~.T.R.R.(.]./.R.R.T.",
"| T.!./.R.^.^.`.'.[.'.~.~././.!.V.~.].~.^.].R.~.`.V.~.~.`.~.`.~.`.^.{.~.R.V./.R.R.~./.].`.`.`.R.`.~.~.G.V.~.R.^.T.R./.].(.T.T.T.",
"| | !./.~.~.~.^.~.'.~.V.V.!.G.!.N.N.~.N.~.`.R.T.V.V.[.~.~.m.^.[.|.`.`.]./.E.W.`.E.}.R.`.~.~.R.R.H.V.V.V.~.~.`.^.T.M.T./.R.T.M.T.",
"T.| !.!.^.R.V.R.H.~.~.N.| ~.!.!.T.R.].N.^.}.R.E.`.V.`.V.`.V.].|.|.`.E.`.B.S.@X-XiXjX,X>XW.R.R.].~.~.V.V.~.~./.~.~.M.M.R.(./.R./.",
"~.R.T.~.].[.].].`.~.N.N.N.N.G.V.[./.~.M.R.R.^.R.~.`.H.H.V.^.`.`.{.V.D.n.p.g.&XcXNXNXxXcX:X$X}./.R././.N.M.~.R.N.T.R./.^.`.~./.].",
"R.~.~.~.[.[.].`.[.^.`.V.V.N.T.G.[.[.[.~.~.~.~.~.`.[.|.'.H.V.K.|.V.D.0.0.u.+X=XNXBXBXBXNXcXiX:XW.`.~./.R.T.~./.`.R./.~.~.R.R.R.R.",
"T.~.~.`.[.[.}.[.{.`.^.~.R.T.T.T././.~.~.R./.].].[.`.'.`.`.V.V.{.D.f.6.w.L.&XtXMXBXBXBXNXnXzXhX,XE.R.T.R.~.R.~././.].~.R.R.`.~.V.",
"~.~.~.^.].[.].].~.~.V.~.T.T.T.!.M.R. .N.R.~.R.~.~.~.~.^.D.V.V.V.y.6.<.g.%X*X;XzXBXBXVXBXVXMXkXkXgX`.T.~.~./.^.].]./.~.~.~.R.^.~.",
"~.~.].~.].~.R.R.R.R.T.R.R.T.!././.T.M.N.M.M.N.N.V.`.|.~.V.V.$.J y.6.,.u.%X%X=XyXnXVXBXBXMXMXzXzXuXjXE././././.].^.~.~.~.~.~.~.R.",
"T.R.`.].].].`.R.`.R.R.T.~.~./.T./.!.N.T.~.V.V.V.N.~.`.V.V.{ 2 J 7.6.4.r.h.%X-XtXlXnXMXBXVXMXBXnXkXnXjXW.~.T.~./.R.R.].~.~.V.N.N.",
"N.R.R.].].].}.`.E.R.T.R././.T.T.~.T.R./.^.^./.`.~.V.V.V.} l z g G 6.2.q.g.h.+X-XtXkXxXxXMXkXnXMXNXNXNXjX}.T.T.T.R.`.`.~.V.N.V.V.",
"~.].].R.R.`.]./.R.T.N.R.]./.T.*.!.T.~./.~.~.~.'.`.'.K.{.O.o.z & ' e.f.6.r.u.j.%X-XeXyXsXmXkXMXBXNXMXNXNXjXE.V.N.R.~.~.~.V.N.~.`.",
"[./.V.N./.[.`.`.~.~.G.V.T./.V././.G.~.[.(.~.~.].[.|.}.[.;.I % & f y.;X&Xu.w.r.L.L.%X&XiXkXkXxXNXcXkXxXNXNXjXE.(.R.(.R.R.~.~.~.].",
"/.R.~.V.~./.^.H.G.!.V.~./.^.^.R.^.^./.T.R.A.#X%X-XU.]./.W : ; & l $XrXrXj.w.3.r.L.L.L.&XyXsXkXlXcXzXNXNXNXxX5XE.E.].`.~.~.~.~.~.",
"R./.]./.!.V.V. .~.~.G.!.'.~.~.~.`.[.].}.$XqXdXdXfXx.=Xp.g d ; t E K.iXhXwXd.<.A w.h.h.L.*XyXsXlXzXzXxXNXxXNXcX:X/././.~.^.~.R.].",
"/.R./.~.!.G.V.G.[./.G.N.^.^.R.~./.W.j.yXvXbXmXvXvX8XpX6XeXy._ / #.G.,XcXxX%X6.S A r.g.g.j.eXtXsXxXnXxXNXNXNXNXiX#XE./.R.`.~.~.].",
"~.V.G.!.~.^.'.[./.`.V.V.!.T.V.T.S.d.9XdXaX7Xx.1.p.d.$X*XrXqXvX@XV.).>XcXNXMXL.<.Z F u.u.g.-X=XuXzXnXnXnXnXBXNXkX:X].~.R.R.R.~.}.",
"~./.V.N./.^.].^.G.!.G.V.~.~.V.p.a.7X9X9Xs.e.D.V./.' L 4.U.c.8XeX#X<X}.jXNXjXrXf.<.Z 9.w.u.j.eXuXhXxXnXnXnXNXnXhXiXQ.R.R.`.R.R./.",
").~.G.V.~.~./.V.N.!.~.T./.G.S.a.l.9X9Xc.i.R.]. X>.u r f ..,.,.5.,X4X5X,XgX;X;XyXk.<.Z 8.r.k.*XeXtXlXmXnXxXnXNXxXuX#XR.R.~.R.R./.",
"m.V.V.G././.^.V.~./.~.~.~.b.1.l.9XpX&X@X].}..X:.s p v &.~ P B ' Q.4XjX$.` A.$X;XsXj.<.A w.t.%XtXtXlXzXzXxXNXnXnXkX;XV.~.~.R.N.~.",
"/./.~.V.G.~.~.T.T.G./.'.A.1.l.9XaX&X#X[.E.;.&.s p v &.=.=.L _ C.<X>XO.x z L A.P.U.dXf.3.3.t.k.eXuXhXzXmXkXMXMXMXkX;XT.R.R.R./.].",
"~.~.).G.N.~.~.~./.G./.W.k.l.0XdX%X@X^.).&.%.m s b &.-.>.).{ $.J.4XT h k y g ` S.P.I.I.,.A 8.4.%XyXhXlXzXnXxXnXMXkX;XQ.R.E.R.R.R.",
"N.T.^.`.~.G.~.~.N.V.`.+Xz.9XaXx.A.!.V.) N &.s N &.-.>._._.| T.E.) k 6 k t 8 d J Z.Z.6.,.S 3.w.%XeXyXhXzXlXnXMXBXkX;XE.R./.]././.",
"N.^.[.`.~.~.G.~.N.R.V.c.7X9Xz.S.| B./ &.-.b b &.-.>.XXXX X[.~.x 6 6 u y t 9 % & f Z.6.Z S 3.t.j.*XfXsXlXhXnXMXMXkX-XQ.T.R.].].R.",
" .R./.[.~.~.!.G.G.B.d.l.9X9XA.~.G.O.=._.v b &.-.>.XXoX1X1X.Xx 7 6 u i t 9 8 % % % 2 y.q.<.3.r.%X=X%XeXsXnXnXMXnXkX-XQ.~.]./.~.M.",
"M.G./.!.~.!.G.V.B.t.s.6XpX$X~.~.;.;._.v v &.-.>.XXOX1X3XOXQ 6 6 u i q 9 8 ; ; ; & d ..w.Z 3.3.k.*XtXsXkXkXnXMXnXhX+XE.R.~.}.].~.",
"V.G.N.G.~.).~.~.R.k.7XvX=XE.~.)..X>.v v %.-.>.XXOX1X3X1X%.a 7 6 u q e 9 9 ; ; : j ! ^ H Z 3.w.j.=XyXlXlXsXlXMXMXsX+XR.~.].].[.[.",
"G.V.N.N.~.[.[./.D.z.qXfX$X~.;.).=.a s Q -.>.XXoX1X3X1XN a a u u e e 0 9 9 8 8 j ! o.T S A 8.k.j.wXyXkXlXzXxXnXnXkXQ.~.].].`.~.~.",
"/.T. ./.].^.~.^.P.l.vXgXG.o.:.+.i a m =.>._.OX1X3XOXN s u v s r e 0 0 9 9 q j #./ T C S A r.k.j.tXuXkXkXuXzXzXzX:XQ.].`.R.E.`.].",
"T.!.!.T.~.].[.}.P.7XdX@XR ( ( i i M =.>._.oX1X2XOXm c c v s i w w 0 0 0 q k #.#.T 3 C S 3.u.j.eXyXuXkXkXuXhXsX=X#XE.E.].`.R.R.`.",
"T././.T.N.R././.P.7XfXG R E y e M =.>._.oX2X3XOXm v c c u r p w w 0 0 q k #.#.! K C S <.t.t.j.eXyXyXkXsXuX:X=X+X>XR.E./.R.R.`.`.",
"T./.[./.T.~.~.E.L.z.rXZ.W q q n =.:._. X1X3XoXM c c c a r r w w 0 0 e k +.+.! E V C A t.j.h.*XtXuXsXuXtX=Xu.+X@XR.R.].E.R.~.`.E.",
"T.T././.].[.[.`.A.l.I.U.J d k =.:._. X1X2XoX) c c a 6 r p w 0 w 0 w n +.+.( E U V C 8.j.-X=XtXuX=XtX=X-Xh.i.@X].|.E./.R.R.R.R.R.",
"~./.!.T.~././.^.D.d.z.I.#X' $.;._. X X4X X/ x c k u r r w w 0 0 e n +.+.( E I l V 8.k.%X=X=X=X=X=X=XL.u.i.Q.].E.]./.E.].~.`.].R.",
"R././.M.V.R.~.V.n.2.s.c.I.I.A.K.W.>X5X{.~ x 6 6 e e w w w 0 0 e n @.+.^ E W z J F g.j.-X-X-X-X+Xh.u.w.i.Q.E.].].R.R.]./.E.R.]./.",
"M.].(.T.M.^.~.m.0.5 5 2.6.7.A.$X>X,X{.K h 6 e e 0 0 0 0 0 0 y n @.+.^ E W h J D r.%X%X-Xh.h.r.w.8.A p.Q./.!.!./.R.R./.R.T.T.T.T.",
"T.R.R./.R.}.T. .b.2.3 4 4 ' {.>X,X!.k t q 9 0 9 9 0 9 9 0 e n @.+.( E I z f D w.h.L.g.t.9.9.9.9.S.n./.^.T.V.H.~.T.T.T.R.R.T.T.T.",
"T.T.R.R.].[.R.T.n.2.2.4 ] '  X4X:.y : ; : ; 8 9 9 9 9 9 y n @.#.( E I z f C 9.i.u.9.p.0.p.n.E.E.R.T.T.V.V.V.^.`./.R.T.R.T.T.T.T.",
"R.m.R.R.[.].].R.J.v.v.. ] J.4XJ.j : - ; ; ; 8 ; ; ; ; y n @.+.( E I z f 3 9.u.8.F 0.E.].].E.R.R.R.R.!.V.V./.`.'.R.R.R.R./.!.T.*.",
"T.R./.R.].~.~.T.K.6.c.7.' {.X.> % % - - - ; ; ; ; ; y n @.#.( R I z < . F 8.9.n.T.E.].R.R.R.].}.}./.~.M.~.`.'.~.R.R.T.R.(.T.T.*.",
"R.^.].R.].R.~.~.B.t.7Xv.3 F.2 $ # # # - % - - - - q I O.#.! R I z <   S 9.A D.`..X].E.R.R.T.R.(.~.~.R.R.~.[.'.~.'.H.V.G./.!.!./.",
"`.^.[.R.~.~.`.].V.A.c.c.G X [ = @ $ # # # % % % > I @.o.! R z k <   F 8.A E.}./.].].(.E.R.R.R.R././.~.~.~.K.~.H.`.H.G./././.)./.",
"].].~.~.T.].^.~.H.B.f.c.fX] , Y = @ @ $ $ # # = U o.o.! U U l <   F 9.F E.E.R.].R.T.].(.R.R.R.].].].~.].`.V.V.H.H.H.H.'././.!.G.",
"|.}.R.~.R.}.~.~.J.B.Z.c.8XbX_ , Y * @ @ @ $ = I O.o.~ U U l <   ' 8.F B.T.R.(.R.R.E.].R.R.R.R.].~.R.R.].H.m.V.'.'.H.G.G.G.G.G.!.",
"T.V.!.~.^.`.[.[.`.~.M.y.x.vXCX_ 1 J * + @ * Y o.X.[ U U l , o A.u.3.B.`.].~.~.V.~.~.~.m.~.[.^.!.T.~.M.T.}.|.[.`.{.~.N. .~.).!.T.",
"V.M.V.V.`.].].].`.~.V.V.L.pXvXCX] 1 Y * * Y O.X.[ U U 2 = o A.i.9.W.V.R.~.R.~.R.R.^.!.T.~.~.!.N.T.~.M.N.{.[.~.`.V.V.V.V.N.| *.*.",
"V.V.~.~.`.[.].[.~.~.~.~.R.-XfXvXCX4 X ` Y $.[ Y Y J 2 = O . 0.9.Q.|.V.~.`.~.`.~.].].~. .V.T.!.~.T.!.T.!.`.^.V.V.V.~.~.~.!.*.*.!.",
"~.~.~.~.`.`.`.`.`.`.`.`./.E.P.qXvXmX4 _ [ X.[ Y l 2 * @ O X 0.@X|.[.V.~.`.~.[.].^.[./.~.~.~.V./.!.!.T.~.`.{.`.V.`.`.~.~././.!.*.",
"].^.^.R.`.`.V.V.].~.~.].]./.R.S.x.qXpXL.Y., Y 2 2 * O O O 1 V.{.^.V.V.V.~.~.`.~.V.^.].]./.~.V.V./.R.T.R.~.~.`.`.~.R.~.~.!.!.!.*.",
"[.].`.^.~.~.~.~.~.R.~.~.^.~.R.B.n.j.qX9X8X7.7.o 1 O O o 2 J.~.H.R.`.N.`./.R.].^.~.`.R.R.N.V. ././.T.~.`.R.R.`.R.R.^.`.^.N.!.*.!.",
"[./.~.R.R.R.`.`.R.~.R.R.~.R.T.T.~.{.@XP.x.6Xl.6.7.4 7.Y.J.K.H.H.].'.~.].].~.[.}.].^.R.M.V.V.R.]./.M.!./.R.R.R.R.~.`././.T.T.!.!.",
"~.V.N.M.N.V.R.`.~.`./.~.R.T.T.T.[.^.`.'.{.D.Z.S.5.S.P.K.K.J.'.'.^.`.V.~.~.V.^.R.R.`.R./.[.`.~./.R.} T.(.R.T.~.~.].R.V.V.T.T.*.*.",
"T./.^.M.m.N.V.V.m.R.`.^.V.M.~.~.<X/.N.~.K.N.V.{.B.[.].].R.N.].~.].~.N.].].N.R.R.`.R.R.~.].].].].~.!.N.~.~.N.N.V.R.].V. .V.~.T./.",
"!./.~.T.V.~.H.V.R.~.].`.~.V.~.].R.R.V.[.[.H.H.`.V.{.].[.~.V.].~.`.~.N.~.].V.~.R.R.^.^.~.~.~.V.N.~.T.~./.~.V.V.R.[.].^.V.T.R.`.R.",
"M.T.N.N.~.`.].~.].~.~.R.R.R.~.R.R.`.R.~.K.V.`.H.V.~.].|.].R././.~.^.T.~.~.T.~.V.R.~.`.R.~.R.V.V.T.N.N.!.T. .T./.[.^.`.R.R.^.].~.",
"T.!.~.~.`.[.].~.].`.V.R.T.R.R.~.~.|.~.R.m.M.`.K.V.V.^.[.~.V.T./.M.^.R.N.N.V.~.V.V.V.~.^.~.~.R.`.~.| N.~.~.!.T.].~.R.~.R.N.~.[.R.",
"/././.~.~.~.V.H.[.`.].`./.~.~.~.V.].^.`.~.~.[.`.D.V.`.`.~.T.M.!.} ~.~.~.N.N./.~.`.~.`.`.~.R.~.]./.~.T././.~.~./.!.V.~.~.N.R.].V.",
"~./././.~.~.~.`.[.[.|.|.].R.R.~.R.`.~.].'.`.}.`.^.^.].~.~.T.M.T. .~.T.!.N.N.~.~.~.~.~.~.~.R.~.].[./.~.~.!.!.T.T.^.~.~.V.V.~.].R.",
"T./.(./.~.V.~.'.`.].`.].~.V.V.R.[.^.N.V.~.~.{.~.`.~.[.~.!./.T.T.T.T.V.T.~.~.`.~.H.V.V.~.`.V.R.].[./.T.*.| !.T.T.V.~.R.V.V.`.`.`.",
"T./.|.(.V.m.V.~.~.~.~.~.~.~.R.~.`.~.m.V.`.~.[.^.^.~.[.!.T./.T.T./.!.M.~.].~.^.~.V.N.V.~.`.~.R./././.T.}  .M./.]./.[.`.N.~.~.V.~."
};
