/* XPM */
static char *cd2e32be50e546a8927c4ad1a5e3ace0XPD6cAthCBBlPdvi[] = {
/* columns rows colors chars-per-pixel */
"64 64 2 1 ",
"  c None",
". c #F36F1B",
/* pixels */
"                                                                ",
"                                                                ",
"                                                                ",
"                                                                ",
"                                                                ",
"  .........................   ..........             .......... ",
" ..........................   ..........             .......... ",
" ..........................    .........              ........  ",
" ..........................    ........               ........  ",
" ..........................    ........               ........  ",
" ..........................    ........               ........  ",
" ..........................    ........               ........  ",
" ..........................    ........               ........  ",
" ..........................    ........               ........  ",
" .        .........       .    ........               ........  ",
"          .........            ........               ........  ",
"          .........            ........               ........  ",
"          .........            ........               ........  ",
"          .........            ........               ........  ",
"          .........            ........               ........  ",
"          .........            ........               ........  ",
"          .........            ........               ........  ",
"          .........            ........               ........  ",
"          .........            ........               ........  ",
"          .........            ........               ........  ",
"          .........            ........               ........  ",
"          .........            ........               ........  ",
"          .........            ........               ........  ",
"          .........            ........               ........  ",
"          .........            ........               ........  ",
"          .........            ........               ........  ",
"          .........            ........               ........  ",
"          .........            ........               ........  ",
"          .........            ........               ........  ",
"          .........            ........               ........  ",
"          .........            ........               ........  ",
"          .........            ........               ........  ",
"          .........            ........               ........  ",
"          .........            ........               ........  ",
"          .........            ........               ........  ",
"          .........            ........               ........  ",
"          .........            ........               ........  ",
"          .........            ........               ........  ",
"          .........            ........               ........  ",
"          .........            ........               ........  ",
"          .........            ........               ........  ",
"          .........            ........               ........  ",
"          .........            ........              .........  ",
"          .........            ........              .........  ",
"          .........            ........              .........  ",
"          .........            ........    .        .........   ",
"          .........            ........    ..      ..........   ",
"          .........            ........    ..................   ",
"          .........            ........    .................    ",
"          .........            ........    .................    ",
"          .........            ........    ................     ",
"          .........            ........    ................     ",
"         ..........            .........   ...............      ",
"         ...........          ..........   .............        ",
"         ...........          ..........    ...........         ",
"                                                                ",
"                                                                ",
"                                                                ",
"                                                                "
};
