/* XPM */
static char *_de6fc1b34564e6bdced8f4386c02228pXJJjOE1rAXXEYHa[] = {
/* columns rows colors chars-per-pixel */
"64 64 184 2 ",
"   c #C96A71",
".  c #C96B72",
"X  c #C96970",
"o  c #C86870",
"O  c #D68C92",
"+  c #DA989D",
"@  c #CF7A80",
"#  c #DEA5A9",
"$  c #CB6F75",
"%  c #CE777D",
"&  c #E7BCC0",
"*  c #D79196",
"=  c #C8686F",
"-  c #CC7379",
";  c #E6B9BD",
":  c #D9979C",
">  c #C96971",
",  c #C86970",
"<  c #D07D83",
"1  c #E8C0C3",
"2  c #D3868C",
"3  c #CA6E75",
"4  c #E3B1B5",
"5  c #DDA2A6",
"6  c #D18187",
"7  c #CE787E",
"8  c #CC7278",
"9  c #CC747A",
"0  c #DFA7AB",
"q  c #E1ACB0",
"w  c #CA6C73",
"e  c #D48A8F",
"r  c #F3DDDE",
"t  c #DB9BA0",
"y  c #E0A9AD",
"u  c #E6BABE",
"i  c #E4B5B8",
"p  c #CB7077",
"a  c #C8676E",
"s  c #DC9FA3",
"d  c #E6BABD",
"f  c #CA6B72",
"g  c #D8959A",
"h  c #E2AFB2",
"j  c #E3B2B6",
"k  c #E4B4B7",
"l  c #F4E1E3",
"z  c #CF7C82",
"x  c #C8676F",
"c  c #E4B3B7",
"v  c #CA6D74",
"b  c #D07D84",
"n  c #D4898E",
"m  c #DDA1A6",
"M  c #E7BEC1",
"N  c #E1ABAF",
"B  c #F4E2E3",
"V  c #DDA1A5",
"C  c #ECCBCE",
"Z  c #D4878D",
"A  c #DDA0A5",
"S  c #E3B2B5",
"D  c #EAC6C9",
"F  c #DB9B9F",
"G  c #F0D6D7",
"H  c #D9969B",
"J  c #EBC9CB",
"K  c #EBC8CB",
"L  c #E5B8BB",
"P  c #DDA0A4",
"I  c #CD757C",
"U  c #E7BCBF",
"Y  c #DC9EA2",
"T  c #E2AFB3",
"R  c #E5B8BC",
"E  c #C7646B",
"W  c #D79095",
"Q  c #E9C1C4",
"!  c #DA9A9F",
"~  c #E5B6BA",
"^  c #CC7178",
"/  c #E4B6B9",
"(  c #DB9CA1",
")  c #CF797F",
"_  c #E8BFC2",
"`  c #D58C91",
"'  c #CD757B",
"]  c #E1ADB1",
"[  c #DB9A9F",
"{  c #E5B7BA",
"}  c #D68F94",
"|  c #DEA4A8",
" . c #D28288",
".. c #CB6E75",
"X. c #DFA8AC",
"o. c #E9C3C6",
"O. c #F0D5D7",
"+. c #F1D9DB",
"@. c #E5B7BB",
"#. c #D89398",
"$. c #DA989C",
"%. c #CB6F76",
"&. c #CB7178",
"*. c #D28389",
"=. c #CB7177",
"-. c #D58B91",
";. c #CD767D",
":. c #F4DFE1",
">. c #FDF9F9",
",. c #FDFAFA",
"<. c #DC9EA3",
"1. c #FCF6F7",
"2. c white",
"3. c #F6E6E7",
"4. c #F6E5E6",
"5. c #FFFEFE",
"6. c #FCF8F8",
"7. c #DEA3A8",
"8. c #D18086",
"9. c #F8EAEB",
"0. c #FDFAFB",
"q. c #CD767C",
"w. c #E1ACAF",
"e. c #F9EEEF",
"r. c #D2848A",
"t. c #E6BBBE",
"y. c #F5E4E5",
"u. c #FBF4F5",
"i. c #D3878C",
"p. c #D28388",
"a. c #FAF1F2",
"s. c #F7E8E9",
"d. c #CE797F",
"f. c #D68E93",
"g. c #EED0D2",
"h. c #FEFCFC",
"j. c #D89297",
"k. c #DC9FA4",
"l. c #DC9DA2",
"z. c #E9C2C5",
"x. c #E7BDC0",
"c. c #E8BEC1",
"v. c #E0AAAE",
"b. c #E2B0B3",
"n. c #D89499",
"m. c #FEFDFD",
"M. c #ECCCCE",
"N. c #CA6C72",
"B. c #DA999E",
"V. c #D58A8F",
"C. c #CC7279",
"Z. c #D58B90",
"A. c #DCA0A4",
"S. c #D07C82",
"D. c #F8ECED",
"F. c #CF7980",
"G. c #F9F0F0",
"H. c #D17F85",
"J. c #D4898F",
"K. c #D79297",
"L. c #D07E84",
"P. c #E3B3B6",
"I. c #E2AEB2",
"U. c #E1ADB0",
"Y. c #CA6D73",
"T. c #D3878D",
"R. c #DB9CA0",
"E. c #F9EFEF",
"W. c #F8ECEC",
"Q. c #E3B1B4",
"!. c #D68D92",
"~. c #E4B5B9",
"^. c #CF7B81",
"/. c #FAF2F2",
"(. c #EAC5C8",
"). c #FAF0F1",
"_. c #CA6E74",
"`. c #DA999D",
"'. c #CC737A",
"]. c #FCF7F8",
"[. c #E2AEB1",
"{. c #E8C1C4",
"}. c #DFA6AA",
"|. c #CB7076",
/* pixels */
"                                                                                                                                ",
"                                                                                                                                ",
"                                                                                                                                ",
"                                                                                                                                ",
"                                                                                                                                ",
"                                                                                                                                ",
"                                                                                                                                ",
"                                                                                                                                ",
"                                        .               X .                                                                     ",
"                                      o O + X         X @ # $                                                                   ",
"                                      X % & * =     X - ; : >     , X               X                                           ",
"                                        , < 1 2 = > 3 4 5       . 6 7 X         X 8 9                                           ",
"                                          = 2 1 < X 0 q w     = e r : =       w w t y =                                         ",
"                                            = * u # i p X     a s d f       = g h 5 j =                                         ",
"                                              = k l z =       x s c = X v   X b n m 4 =                                         ",
"                                            = 2 M c N w         d B * V C M m Z : A S =                                         ",
"                                          , < 1 2 w S 5       , N D F G H J K F L P S =                                         ",
"                                        X I U * = X - d H ,   a Y T m R E W Q ! ~ P S =                                         ",
"                                        ^ / ( X     X ) _ ` X a s 4 g C ' ] D [ { A j =                                         ",
"                                      = } | .         =  .] ..= : X.8 o.O.+.@.#.N $.0 =                                         ",
"                                        ..w               %..   %.&.X p *.7 8 ..^ %.=.                                          ",
"                                                                        , X >                                                   ",
"                                                                                                                                ",
"                                                                                                                                ",
"                                                                                                                                ",
"                                                                                                                                ",
"                                                                                                                                ",
"                                                                                                                                ",
"                                                                                                                                ",
"                                                                                                                                ",
"                                                                                                                                ",
"                                                                                                                                ",
"                                            X = = X                                                                             ",
"                                          X I -.` ;.X                                                                           ",
"                                        . F :.>.,.l <.f                                                                         ",
"                                      X s 1.2.3.4.5.6.7.X                                                                       ",
"                                    , 8.9.0.T % q.w.>.e.r.o                                                                     ",
"                                    X { 2.1 f X X   t.2.U                                                                       ",
"                                  X q.y.u.i.=     = p.a.s.d.X                                                                   ",
"                                  = f.,.O...        v g.h.j.=                                                                   ",
"                                  = | 2.R =         = j 2.y =                                                                   ",
"                                  = i 2.# x         x k.2.U ,                                                                   ",
"                                  , U 2.l.x         = : 2.z.X                                                                   ",
"                                  X x.2.( x         = H 2.z.X                                                                   ",
"                                  = { 2.5 x         x t 2.c.X       X                                                           ",
"                                  = v.2.S =         = q 2.b.=     w 9   = X   = = X   = = X                                     ",
"                                  = n.m.M.N.          D 2.B.=   = V.# C.F d.X Z.A I X ` A.' X                                   ",
"                                  X S.D.D.< X     X F.s.G.H.X   w c J.- z.K.L.z.P.I. .Q c I.                                    ",
"                                    f D 2.U.=     = 0 2.C Y.  = T.i w a | * ( Y ..d ] R.%.U ' X                                 ",
"                                    = f.1.E.j.    } W.>.j.=   . Q.!.= = # * # *   ~.; W   { ^.X                                 ",
"                                      w L 2./.D (.).2.U v   , *.~ _.  = # * `.7.C.t.X.V 9 & '.                                  ",
"                                      X 8 d 1.2.2.].M '.X     [.W =   = 5 W 7 {._ }.^.Q _ # X                                   ",
"                                        X w ` I.h f.v X   X 6 R %.      ;.- X L.W |.X H.W %.                                    ",
"                                            = = = =       o -.!.=       X X   X =     X =                                       ",
"                                                            .                                                                   ",
"                                                                                                                                ",
"                                                                                                                                ",
"                                                                                                                                ",
"                                                                                                                                ",
"                                                                                                                                ",
"                                                                                                                                ",
"                                                                                                                                ",
"                                                                                                                                ",
"                                                                                                                                "
};
