/* XPM */
static char *RXhpdA__[] = {
/* columns rows colors chars-per-pixel */
"64 64 104 2 ",
"   c #5EB55E",
".  c #60B65F",
"X  c #5FB660",
"o  c #60B660",
"O  c #65B865",
"+  c #6AB965",
"@  c #65BA6C",
"#  c #6ABB6A",
"$  c #73BD6D",
"%  c #79BE6D",
"&  c #65BC74",
"*  c #6CBD73",
"=  c #6FBF79",
"-  c #73BE73",
";  c #75C075",
":  c #75C27E",
">  c #7BC27B",
",  c #83C47B",
"<  c #88C67B",
"1  c #74C285",
"2  c #7EC483",
"3  c #83C684",
"4  c #8BC780",
"5  c #87C887",
"6  c #8EC984",
"7  c #86C78B",
"8  c #89C989",
"9  c #92CA8D",
"0  c #9BCE8C",
"q  c #8DCB96",
"w  c #8ECE9C",
"e  c #92CD93",
"r  c #91CE99",
"t  c #9CD096",
"y  c #9BD19C",
"u  c #A2D39F",
"i  c #AED69E",
"p  c #9CD3A3",
"a  c #9ED5AC",
"s  c #9DD4B1",
"d  c #A5D6A5",
"f  c #AAD6A3",
"g  c #ACD8A7",
"h  c #A4D6AB",
"j  c #A8D7A9",
"k  c #ABD9AC",
"l  c #B0DBAB",
"z  c #BBDCAD",
"x  c #A1D7B1",
"c  c #AADAB5",
"v  c #AFDCBD",
"b  c #B1DBB1",
"n  c #BADFB9",
"m  c #BDE1BC",
"M  c #C0DFB3",
"N  c #C6E3BC",
"B  c #C8E3BB",
"V  c #B2DFC0",
"C  c #BFE5CC",
"Z  c #C3E4C4",
"A  c #CEE6C3",
"S  c #C2E5CC",
"D  c #CAE6CA",
"F  c #CEE8CD",
"G  c #D5E8C7",
"H  c #D6EACF",
"J  c #DAEBCD",
"K  c #CDEBD6",
"L  c #C7E9D8",
"P  c #D2EBD2",
"I  c #D0EAD5",
"U  c #D7EDD7",
"Y  c #DDEDD3",
"T  c #D8ECD6",
"R  c #D8ECD7",
"E  c #D0EBD9",
"W  c #D1ECDB",
"Q  c #D2EDDC",
"!  c #D8EDD8",
"~  c #DCEFDC",
"^  c #DEEFDC",
"/  c #DEF0DE",
"(  c #DFF1DF",
")  c #D8F1E4",
"_  c #E0F1E0",
"`  c #E1F1E1",
"'  c #E5F3E5",
"]  c #E6F3E4",
"[  c #E6F3E6",
"{  c #E6F4E6",
"}  c #E8F4E8",
"|  c #E8F5E8",
" . c #ECF6EA",
".. c #ECF6EC",
"X. c #EDF7ED",
"o. c #EEF7EE",
"O. c #F1F9F1",
"+. c #F4FAF4",
"@. c #F5FAF5",
"#. c #F6FBF6",
"$. c #F8FCF8",
"%. c #FAFCFA",
"&. c #FCFEFC",
"*. c white",
/* pixels */
"# o o o o o o X o o o o o o o o o o o o o o o o o o o o o o o o o o o o o . o o o o o o o o o o o o o o o o o o o o o o o o   e ",
"o o o o . o o o o o o o o o o o o o o o o o o o o o o o o o o o o o o o o o o o o o o o o o . o X o o o o o o o o o o o o o   8 ",
"o o o o o o o o o o o o o o o o o X o o o o o o o o o o o o o o o o o o o o o o o o o o o o o o o o o o o o o o o o o o o o   8 ",
"o o o o o o o o o o o o o o o o o . o o o o o o o o o o o o o o o o o o o o o o o o o o o o o o o o o o . o o o o X o o o o   5 ",
"o o o o o o o o o o o o o o o o o o o o o o o o o o o o o o o o o o o o o o o o o o o o o o o o o o o o o o o o o o o o o o   5 ",
"o o o o o o o o o o o o o o o o o o o o o o o o o o o o o o o X o o o o o o o o o o o o o o o o o o o o o o o o o o o o o o   5 ",
"o o o o o o o o o o o o o o o o o o o o o o o o o o o . o o o o o o o o o o o o o o o o o o o o o o o o o o o o o o o o o o   5 ",
"o o o o o o o o o o . o o o o o o o o o o o o o o o o o o o o o o o X o o o o o o o o o o o o o o o o o o o o o o o o o o o   5 ",
"o o o o o o o o o o o o o o o o o o o o o o o o o o o o o o o o o o o o o o o o o o o o o X . o o o o o o o o o o o o o o o   5 ",
"o o o o o o o o o o o o o o o o o o o o o o o o o o o o o o o o o o o o o o o o o . o o o o o o o o o o o o o o o o o o o o . 5 ",
"o o o o o o o o X o o o o o o o o o o o o o o o o o o o o o o o o o o o X o o o o o o o o o o o o o o o o o o o o o o o o o   5 ",
"o o o . o o o o o o o o o o o o o o o o o o o o o o o o o o o o o o o . o o o o o o o o o o o o o o o o o o o o o o o o o o X 5 ",
"o o o o o o o o o o o o o o o o o o o o .       o o o o o o o o o o o o o o o o o o o o o o o o o o o o o o o o o o o o o o   5 ",
"o o o o X o o o o o o o o o o o o o o o o O 3 #   o o o o o o o o o o o o o o o o o o o o o o o o o o o o o o o o o o o o o . 5 ",
"o o o o o o o o o o o o o o . o o o       y o.j o o o o o o o o o o o o o o o o o o o o o o o o o o o o o o o o o o o o o o   5 ",
"o o o o o o o o o o o o o o o o o   o   8 o.*.j o o o o o o X o o o o o o o o o o o o o o o o o o o o o o o o o o o o o o o o 5 ",
"o o X o o o o o o o o o o o o o o #   > ` *.m O   o   X X           X X   X o o   o o o o o     o o o o o o o o o o o o o o   5 ",
"o o o o o o . o o o o o o o o   3 D e P *.F #     X 2 , * $ ; ; # q > X 3 6 + : 8 # # 8 $ = 3 O o o o o o o o o o o o X o o   5 ",
"o o o o o o o o o o o o o o o o b *.@.*.^ - X o   1 ) B a f h k C P N a ^ F u E / z x ] u L J %   o o o o o o o o o o o o o   5 ",
"o o o o o o o o o o o o o o o   - R *.} 3   o o   = W M h g s Z D $ = C 0 O h  .R J c ^ t S G %   o o o o o o o o o o o o o   5 ",
"o o o o o o o o o o o o . o o o   3 ! e X o o o   : c ! M m v m H < 7 S i = c Y k B p S G h Q 0   o o o o o o o o o o o o o   5 ",
"o o o o o o o o o o o X o o o o o o # o o o o o . 1 K A 8 K H < a R M q I H 9 S R f x ^ z S R <   o o o o o o o o o o o o o   5 ",
"o o o o o o o o o o o o o o o o o o X o o o o o o o # $ o * $   O - * o * $ o # - X O - O # % o X o o o o o o o o o o o o o   5 ",
"o o o o o o o o o o o o o o o o o o o o o o o o o o o . . .   o o o o o . o o . o X X X o     o o o o o o o o o o o   o o o   5 ",
"o o o o o o o o o o o o o o o o o o o o o o o o o o o o o o o o X X o o o o o o o o o o o o o o o o o o o o o o o o o o o o   5 ",
"o o o o o o o o o o o o o o o o o o o o o o . o o o o o o o o o o o o o o o o o   o o o o o o o o o o o o o o o o o o o o o   5 ",
"o o o o o o o o o o o o o o o o o o o o o o o o o o o o o o o o o o o o o o o o o o o o o o o o o o o o o o o o o o o o o o   7 ",
"o o o o o o o o o o o o o o o o o o o o o o o o o o o o o o o o o o o o o o o o o o o o o o o o o o o o o o o o o o o o o o   8 ",
"o o o o o o o o o o o o o o o o o o o o o o o o o o o o o o o o o o o o o o o X o o o o o o o o o o o o o o o o o o o o o o   5 ",
"X o o o o o o o . o o o o o o o o o o o o o o o o o o o o o o o o o o o o o o o o o o o o o o o o o o o o o o o   o o o o o   8 ",
". o o o o o o o o o o o o o o o o o o o o o o o o o o o o o o o o o o o o o o o o o o o o o o o o o o o o o o o o o o o o o   5 ",
"o o o o o o o o o o X o o o o o o o o o o o o o o X   o o o o o o o o o o o o o o o o o o o o o o o o o o o o o o o o o o     8 ",
"o o o o o o o o o o o o o o o o   O O O o o o   . O # O     o o o o o o O O o O O o o o o o o o o o o o o o o o o o o o o o   5 ",
"o o o o o X o o o o o o o o o . 8 D D k O o   O d R ` K t O o . o X # n D D D D 8 . o o o o o o o o o o o o o o o o o o o o   5 ",
"o o o o o o o o o o o o o o o O P *.*.` # o O m *.%.o.$.%.d X X o   3 @.*.*.%.*.k   o o o o o o o o o o o o o o o o o o o o   5 ",
"o o o o o o o o o o o o o o o O 8 y } / #   8 @.} q - y O.o.>   o   d *.k 8 q 8 -   o o o o o o o o o o o o o o o o o o o o o 5 ",
"o o o o o o o o o o o o o o o o   O / ` # . n *.y       l *.y   . O D O.-         o o o o o o o o o o o o o o o o o o o o o   5 ",
"o o o o o o o o o o o o o o o o   O / ` # o n ] > . .   e *.k     * ' / > #     o o o o o o o o o o o o o o o o o o o o o o X 5 ",
"o o o o o o o o o o o o o o o o   O / ` # o # - O . .   y *.d     3 %.%.} R t . o o o o o o o o o o o o o o o o o o o o o o   5 ",
"o o o o o o o o o o o o o o o o . # / / #   .     .   O P %.8   . j %.] } *.%.y X o o o o o o o o o o o o o o o o o o o o o   5 ",
"o o o o o o o o o o o o o o o o   # / / #   O   o o   y *.P #   . d t # - k *.] -     X o o o o o o o o o o o o o o o o o o   5 ",
"o o o o o o o o o . o o o o o o O O / ` # . O   o   > } @.8   o o O X X   o Z *.y   o o o o o X o o o o o o o o o o o o o o   5 ",
"o o . o o X o o o o o o o o o o   # / ` # O     o # F *.b o o o o o o o o   e *.b . o o o o o o o o o o o o o o o o o o o o   5 ",
"o o o o o o o o o o X o o o o o   O / / #       X k *.P # . o o X o o o o   5 %.n   o o o o o X o o o o o o o o o o o o o     5 ",
"o o o o o o o o     O     O   O   O / / #   O   q @.| > . o o o # O . . .   y *.j   o O O o X X   O     o o o o o o o o o o   5 ",
"o o o o o o o o   O             . # / ` #     ; ` @.9     o o - F j       # P %.8   X r e 9 7 f 7 g %   o o o o o o o o o o   8 ",
"o o o o o o o o   . X     .       # / ` #   O Z *.R e 8 9 9 - = X.@.k ; > Z *.U #   = f : u j h A p 0   o o o o o o o o o     5 ",
"o o o o o o o o     O     O O     # ` ' #   j *.*.*.*.*.*.*.j   p @.*.o.O.*.` 3 o o w 4 & p j a A p 0   o o o o o o o o o o   5 ",
". o o o o o o o o o o o o o o o o O d h + O j n n n n n n n 5   o 8 F ] ` n -     * d + @ 2 7 f 7 h % X o o o o o o o o o o   7 ",
"o o o o o o o o o o o o o o o o o o     o o                 o o o   O # # O o o o * > o   o o o X o   o o o o o o o o o o o   5 ",
"o o o o o . o o o o o o o o o o o o o o o o o o o o   X o o o o o o o o o o o o o o   o o o o o o o o o o o o o o o o o o .   5 ",
"o o o o o o o o o o o o o o o o o o o o o o o o o o o o o   o o o o o o o o o o o o o o o o o o o o o o o o o o o o o o o . . 5 ",
"o o o o o o o o o o o o o o o o o o o o o o o o o o o o o o o o o o o o o o o o o o o o o o   o o o o o o o o o o o o o o o   5 ",
"o o o o o X o o o o o o o o X o o o o o o o o o o o o o o o o o o o o o o o o o o o o o o o o o o o o o o o o o o o o o o o   5 ",
"o o o o o o o o o o o o o o o o o o o o o o o o o o o o o o o o o o o o o o o o o o o o o o o o o o o o o o o o o o o o o o   5 ",
"o o o o o o o o o o o o . o o o o o o o o o o o o o o o o o o o o o o o o o o o o o o o o o o o o o o o o o o o o o o o o o . 5 ",
". o o o o o o o o o o o o o o o o o o o o o o o o o o o o o o o o o o o o o o o o o o o o o o o o o o o o o o o o o o o o o   5 ",
"o o o o o o o o o o o o o o o o o o o o o o o o o o o o o o o o o o o o o o o o o o o o o o o o o o o o o o o o o o o o o o   5 ",
"o o o o o o o o o o o o o o o o o o o o o o o o o o o o o o o o o o o o o o o o o o o o o o o o o o o o o o o o o o o o o o   5 ",
"o o o o o o o o o o o o o o o o o o o o o o o o o o o o o o o o o o o o o o o o o o o o o o o o   o o o o o o o o o o o o     5 ",
"o o o o o o o o o o o o o o o o o o o o o o o o o o o o o o o o o o o o o o o o o o o o o o o o O   o o o o o o o o o o o o   5 ",
"o X o o o o o o o o o o o o o o o o o o o o o o o o o o o o o o o o o o o o o o o o o o o o o o     o o o o o o o o o o o o   5 ",
"o o o o o o o o o o o o o . o o o o o o o o o o o o o o o o o o o o o o o o o o o o o o o o o o o o o o o o o o o o o o       5 ",
"O o o o o o o o o o o o o X o o o o o o o o o o o o o o o o o o o o o o o o o o o o o o o o o o o o o o o o o o o o o o o   O e "
};
