/* XPM */
static char *_1f9dc268e9d44f9e56d69cf24d0fc2c2NMIC0cnsh6SUTzO[] = {
/* columns rows colors chars-per-pixel */
"64 64 142 2 ",
"   c #D5B67E",
".  c #D7B87D",
"X  c #DBBC7E",
"o  c #DEC17F",
"O  c #D6B780",
"+  c #D7B881",
"@  c #DCBD85",
"#  c #DDBF89",
"$  c #E2BF85",
"%  c #E0BF89",
"&  c #E0BF94",
"*  c #DFC085",
"=  c #DFC08A",
"-  c #E1C286",
";  c #E4C38E",
":  c #E4C38D",
">  c #E1C48C",
",  c #E3C48D",
"<  c #E2C58D",
"1  c #E3C68C",
"2  c #E2C48E",
"3  c #E3C48E",
"4  c #E3C58F",
"5  c #E3C68E",
"6  c #E4C58C",
"7  c #E5C58C",
"8  c #E5C68D",
"9  c #E4C78D",
"0  c #E7C78C",
"q  c #E6C68D",
"w  c #E5C48E",
"e  c #E4C58E",
"r  c #E4C58F",
"t  c #E6C58F",
"y  c #E5C68F",
"u  c #E4C78F",
"i  c #E6C78E",
"p  c #E7C78E",
"a  c #E2C38C",
"s  c #E9C68B",
"d  c #E7C888",
"f  c #E5C88C",
"g  c #E6C88C",
"h  c #E7C98D",
"j  c #E5C88E",
"k  c #E7C88F",
"l  c #E6C98F",
"z  c #E7CA8E",
"x  c #E6C88D",
"c  c #E9C98C",
"v  c #E8C88D",
"b  c #EACA8D",
"n  c #E9C98E",
"m  c #E8C88F",
"M  c #E8CA8E",
"N  c #EBCC8C",
"B  c #E9CA8E",
"V  c #E1C190",
"C  c #E3C390",
"Z  c #E2C291",
"A  c #E1C093",
"S  c #E3C392",
"D  c #E2C490",
"F  c #E3C591",
"G  c #E4C491",
"H  c #E4C690",
"J  c #E5C690",
"K  c #E5C791",
"L  c #E7C690",
"P  c #E6C790",
"I  c #E6C791",
"U  c #E5C592",
"Y  c #E4C493",
"T  c #E4C692",
"R  c #E5C793",
"E  c #E6C693",
"W  c #E3C295",
"Q  c #E4C396",
"!  c #E5C594",
"~  c #E7C794",
"^  c #E6C695",
"/  c #E5C596",
"(  c #E5C690",
")  c #E8C791",
"_  c #E8C792",
"`  c #E5C890",
"'  c #E7C891",
"]  c #E6C991",
"[  c #E7CA90",
"{  c #E6C892",
"}  c #E7C892",
"|  c #E7C993",
" . c #E6C894",
".. c #E7C995",
"X. c #E7C892",
"o. c #E8C990",
"O. c #E9C990",
"+. c #E9CA91",
"@. c #EBCB90",
"#. c #EACA91",
"$. c #E9C892",
"%. c #E8C992",
"&. c #E8C993",
"*. c #EAC993",
"=. c #E9CA93",
"-. c #E8CB93",
";. c #EACB92",
":. c #EBCB92",
">. c #EBCC93",
",. c #ECCC91",
"<. c #EDCD92",
"1. c #ECCC93",
"2. c #E8C895",
"3. c #E8CA94",
"4. c #E9CA94",
"5. c #EBCA94",
"6. c #EACB94",
"7. c #EACB95",
"8. c #E9C996",
"9. c #E8C897",
"0. c #E8CA96",
"q. c #E9CB97",
"w. c #EACA97",
"e. c #ECCB95",
"r. c #E9CC94",
"t. c #EBCC95",
"y. c #EACC96",
"u. c #EBCC96",
"i. c #ECCD94",
"p. c #ECCD96",
"a. c #E9CA93",
"s. c #E7C798",
"d. c #E7C699",
"f. c #E9C998",
"g. c #EBCB98",
"h. c #EACC98",
"j. c #ECCC99",
"k. c #EDCE98",
"l. c #EDCD9C",
"z. c #ECCD98",
"x. c #EFD29A",
"c. c #F0D19A",
/* pixels */
"- X X X @ @ @ # # $ : : : a - 7 I 5.+ @ # # 5.r.F ] : 5.# : = ] j a - a - a q I I C Q h.s.& & / Z : # # a , ] =.* q d a * X * - ",
"- o X X # $ $ $ @ # # % $ # # $ # F @ = ] C 5.] ] q # ] : ] = = - # # = * a q # : : I s.s.W W ! ! I a a = = a # a , a a * * - - ",
"d - - - a d : $ $ : : : d : d q @ : = F ..: F I @ : , =.# @ @ : a = a , = I q @ # # ! ! ! s.s.! a # = a : a = * a a - # * - * - ",
"d N N d d v q a @ % % % a 7 q : a ] I , I : = F + a I ] = + + = a : q , a I I @ @ = I I ! h.s.W : a a a , q a a a - a d f - - * ",
"o s #.s : q _ I # : : % # a 7 7 , 5.0., , , : , I = = : ..F = # = I ..= @ = I # + a ] , I ! ! : I I : : a = a * a a j =.z a * * ",
"X - d 7 a 7 q I _ 5.5.: 7 7 s - # : ] : q ] = a I = : : ] , F : I I ! : # # q a # a q I F F : # I : a * = : a q @ # d ] j * * * ",
"X X - d a a a q : I : # # - - - @ @ , @ : ..# * # # 5.a : + , 5.h.! I I , F I : - a , I q a # a = # # # a a j v @ X @ d a * + * ",
"- X $ - q a $ = = , a @ X a - - * = I @ : r.= , I # F # F = ..5.l.C A I q F , @ a a a q : # # a a a = = a a d , a + + a j a = d ",
"a - * a ] r.0.] I : @ @ @ @ * = >.j a + # a : # : F = # % I ~ Z / & & I ! = a ] q q a a - d q a a j j @ + a a @ * a d q I , q I ",
"a a , j 5.r.] F 5.q : = * @ * * i.r.=.a a , , : F 5.j.5.% @ Z l.# # # C = @ + # q q , * # - a a a : d # * a q , a a a a a = = = ",
"* a : F 5.r.0.[ ..I , : = * * * d q q a a q I ] =.I I I C # # / & Z / Z , a # # a d a * @ # = * - # * = a a q q v q : = = : a # ",
"a a : , I 5.0. ., , = : * * * - + # + @ # a a : , a a : & # # C : ~ ~ Z , ] v q a a a * # * * # d - - a a d q j j q , , , , q , ",
"q 5 H H ] 5 = = = = * = = * - f d * + X + + @ @ # F h.C # # W h.# q F = a , , * q , , a a , : = =.d = j j d q =.q , , , , , : = ",
"@ = F [  .] 5 = R = = * 1 1 1 - j - @ * a # # # @ : ! # # # & # # : F = : a * X v ] q : , I q a q * * - a - a q a a ] , : # @ @ ",
"@ = , H  . ...R 5 = * = f 1 * * a - # d j q q I : # # # % W & @ : , : = , a a * q ] =.d = = = a * * X + * * * * = a , , # @ # # ",
"H ] H = = D R 5 = * @ = [ f * o - - a v j a : I ] I Z s.5.C I j.I : @ @ # * a q a I =.a @ O + # - - @ * # - # @ = , , , # @ : F ",
">.5 # @ 7 5._ I a a $ # - d $ q s - a >.v = a r.h.h...I F I : # > ` > = = ] F = = F ] ` * * * z r.j ] # + # a <.a , = = , , q ] ",
"d a a % a d q % $ - # a s q 7 - q q d - a = , I ....] : = : a = > 5 5 > > ] T D R R ] 5 = * * z q a q a a a # # : I , : , , , , ",
"a d q d - # @ + a 7 $ - _ q a a v <.v - # , ..F F ] I , # = : : > > = 5 T q.T F 0.F = = = = > > =.a a @ # , # a , ] q , q , = I ",
"a a q a - $ # $ =.] $ @ q q a a d =.j @ @ , ] , , ..] , : = I I * * = < ] T F 0.0.F = = = = > = I = = @ a I a ] : , : = F , : ] ",
"a % $ - a s =.=.s I # @ - - $ - @ * # @ @ # = # = , F , = = q q * * * = ] T T q.F F F 5 < < > = @ + : , q 5., , , , a = , a a =.",
"q d # @ 7 s =.q $ - $ # a a # $ @ X + * : # @ @ # = = = # # a = = * = > ] T 0.0.D F ] F = = > > @ + = # # , = I , , = = , # = ] ",
"d : $ # 7 : d # @ - a - 7 $ # a - - = q ..= = # # = a a a - a * < > > > F ] 5 = = D F = * = = = : = a + + = : ] # = = a , # # q ",
"+ @ # $ 7 d 7 # a s 7 a a # $ q - d q ] ] H = # = a a a a q d a < 5 5 5 5 F = = = D = = * = D = ] : I a = q = , + + @ : q # @ , ",
"s q a # $ a a - - $ q =.] $ # - d s #.=.I q = @ = = = a = 1 d j ` -.< T < = < < z z = = = = = = 5.] , = @ a : , q @ + = q a : ] ",
"a 7 d $ $ a a a 7 $ d =.s = # - 7 7 q d ] ] r.[ H H a a f d a - < T D D < = < < * = l l = = = = , , , : , ] ] ] 5.: # a , a # = ",
"@ - q q a $ 7 a @ # a : 7 $ # # @ - # # = ] [ 0.[ 5 * * - d * * < D = < ] > = = = = = = = = D  .: , q , , , , = = a = a q I q : ",
"X 7 =._ 7 a - a @ # $ 7 7 - $ $ X @ # - , = = * H * + * * * * * < < = = > = 9 = [ = = * = = T -.F H I , : = # @ # = = = , =.] = ",
"+ % s =.a a - $ $ $ # - d q 7 7 $ @ a q I q , = 1 * * * * * d d D > * = > = > * 5 = = = H H A = , , , , = , , : = F , : , q : + ",
"+ $ a d 7 - $ # @ # # $ a a a a - $ # d =.5.] r.1 = * * o o - d q.T = > > > j > f 1 = f H H = # = , a = = : , , @ * : = , =.I , ",
"# $ @ $ a d : a - # # $ # $ a $ 7 # @ a ] =.] ] = f * * o * o - -. .= < j 5 [ j r.f 5 = = H D = : , a = = : = =   + # : ] r.r.r.",
"$ @ @ @ 7 =.=.s d q - % % 7 7 % : a a q =.I , a = = * * * * * * > < = > > = j > = 5 r.0.0.= # # = , , , q I ] F : , : I I F , , ",
"d * + j =.q a q 5.I a : C I I C ..= ..: : 5.= I = @ @ : : % a I D -.D = = < T `  .D = = = = = = + * H 5 F ! ..h...A F / < V T  .",
"* - - * a j >.>.] I , F C C # + C = ..I F ~ = I # @ @ # : q % @ T T D = = = D -.R D = = = @ = = 5 H ] 5 = = = A ..F F F V = > D ",
"* z d * @ a q q ] I F , C # # # # # I ] I I : F O C _ : % % a % = D = = = = D D = = = 5 D 5 R -., a = , = , A # D V D D = = D D ",
"* j =.d - - a a I I : : # & F I = = F I ] .., q @ I 5.: @ # d v D D -.= = = l D = = D 5 R 5  .h.a * @ = , H F = = = D D = D F D ",
"* - d z v >.=.] q , = = = : Q z.F 5 = = ] I I : F - # # 7 : 7 a < -.q.T D r.r.-.5 5 5 = = = = 5 a * * a , j , : q.< 5 > = > > = ",
"- 1 - - a v j q , : = : : F F , H H = = q , ] a a a - a s q a a = < -.D D D R D  .R R D = = = = * * * a q ] I , -.< < ` > F ] = ",
"a j 1 + # a a @ I : = = : = : : = ] = = a * j a * j N j - - a d * = = = = = = = = = 5 5 = = 5 r.X o - 1 q q I ] = = ` ` > > ] < ",
". j j * + I , O r.I # # = = F , = f * f - + q , q v a X + 7 d @ = = = = * = D = = = < R  .R  .h.+ * d j , a a , = = > = * * * * ",
"@ a # q a 5.@ + : , , = = = I =.] = f r.r.= * = q # X * - X @ v < h.< = = + =  .D = 5 = + =  .x.a q d d * # # : * * * = = * * o ",
"@ @ # d j i., @ , , , , , q I q ] = z r.z f f z - @ + - - @ X # R h.< = = @ 5  .H  .0.H = = = < # * * # # = q I > = * = * * * * ",
"# + a # =...I # q , a , ] ] I , = z R = , H ] 5 = a a a - - $ # 5 ..< D 5 = 5 0.H H H H 5 D = 5 a a - @ # d I I D = = = d - * o ",
"* # q # ] : q # q a # # : , I =.= r.= = = , = * @ - a a - 7 a $ = < = D = = H 0.H H H = = = R ..=.j a + a I ] : = = * = v - * o ",
", q =.# I = q , a # # a : , q =...] ] ] H = = , @ # # + + a a a = 5 = = H = H  .0.] D = = # = 5 a a = # : 5.~ : _ % # $ d $ - s ",
", q =.a a a I I # # - q ] q q ] ..F F Q 5 , = , , I a @ $ : q : 5 h.D H  .5 H H H H H 5 = # = = j q , a : Z : % Z % $ 7 q 7 d s ",
"I I a a # I q , # + = ] 5., a = ] ] = # # : I F 5.I , : I _ q : D h.D D  .D = H = =  .H = = = ] =.] q ] Z # # % : % % ) s d $ $ ",
"j.r.= , = r., , a # + , j , = * r.z.F # @ I r.] # # # % : : # + = 5 = = = = H = = 5 H = = = =  ., = # I % + # ~ _ % $ $ $ $ $ - ",
"# # - a : I 5.5.I = @ @ * a - - X * * o @ a d a = , q a # - * * , : @ F ] , q # , , a + : =.q d * a + * r.j.5.! ..a @ + a d - o ",
"# + # # I ] ..] F : # * # * * * o o o * * X + # q q j a a - - a F C @ = : # a # a q - - a , * @ * a + # ..5.: A # = * # @ X o o ",
"# # a a F =.] 5., : , a - * * o o o * 1 d - * , =.I ] =.q # a j r.5.= , F : I , I ] a + * * - a * - - - I I & # # : , a - o o - ",
", , : : I I I F F I I I d - * * * o - d j j q =.] : q ] I - a ] z.5.= , F : 5.] q =.q a a a # d - - * a I F : = ! F : , d d - o ",
"] I q , F : = = , : , ] ] j - * * - - a a q : % q # # F ] , = a , = # = , a I , # q ] =.] a @ # j - * a , , C C , , a a - - - o ",
"i.=.I q : : : : : a a a q , * * * a a - = I ! : : # # , q , = = = : @ F q a I q , I a # * @ + 7 z * a , = # C = = q ] q * * o - ",
"=.d a = = = F F = : = a a = * * a , , , , =.h.h.# C : : = = : : I I : ] ] , =.=.] q # + # @ = =.d + - j # # a = : F ] q * * - - ",
"a # @ + @ # = F , F q a = * - - i.q I I I : Z h.C s...: # = , I q I = , a # : a = a a q 5.q a j = . * v = * : : I = # # * * o o ",
"- j q + O @ # # O # F q = + a j x.q @ : A @ # ! # 5...] = @ ] : ] : @ ] I @ = = : = = , ] ] ] ] a - # a a * @ @ = I #   # a * q ",
"- d a # @ a = # = , I I : # a j # a # 5.h.= C C # ! =.5., # ] , I , @ q I # a = , q q , , : # @ a - a d a # # = r.r.q # * a a a ",
"+ * * * : ] ] : .., : = # # a a = F = : & # C % # C ] j.] # d j a q * a a * : # = a , , : = # # - @ # - * + * q =.q q = = q =.a ",
"* - = a I 5..., ] F = = - a # a , z., # + + C & # # q 5.q # * 1 + q = * @ # , = # = , q , , = I a X @ a a * * =.: # : = @ , =.= ",
"d j d , , , = = ..I ] I q a : , # =.q I C : 5.F & # F I , * + - . a a a @ @ d a , , F F , = : I j - - d d a a j d = , : @ a ] @ ",
"1 d j 1 : : , F =.5.h.z.I a = : # I , I I I h.F q : ] , a = + * + a - - @ @ , a , : , , : = : ] i.v a a - - * * a a a # # : I = ",
"* 1 N j = = , 5.I I I ] , # # = =.I @ # = : .., I , =.a - d * * * - # - , a I : = # # : F = = ] >.j - o X * * - # a = @ = F I F ",
"* d i.N # + # , : = : , , : = a ] , + # F , 5.q q : =.- * d * * d - + - =.q ] a = @ # , F : = , d z * . . + d j j i.I @ : , # : "
};
