/* XPM */
static char *UGxheWVyLg__[] = {
/* columns rows colors chars-per-pixel */
"64 64 221 2 ",
"   c #020202",
".  c #0C0C0B",
"X  c #080606",
"o  c #100F0C",
"O  c #11100E",
"+  c #0C0C12",
"@  c #0F0F19",
"#  c #141314",
"$  c #15141B",
"%  c #1C1B1C",
"&  c #181819",
"*  c #100E14",
"=  c #201F1D",
"-  c #20201E",
";  c #1E1C24",
":  c #1F1D29",
">  c #191624",
",  c #201F25",
"<  c #211E2A",
"1  c #231F30",
"2  c #1F2024",
"3  c #232224",
"4  c #23222B",
"5  c #2C2C2C",
"6  c #282729",
"7  c #302F2D",
"8  c #31302E",
"9  c #252331",
"0  c #292535",
"q  c #2C2C35",
"w  c #2D2B3A",
"e  c #2A2738",
"r  c #343433",
"t  c #3A3937",
"y  c #3C3C3A",
"u  c #373539",
"i  c #2E302F",
"p  c #41413F",
"a  c #322E41",
"s  c #353243",
"d  c #3B3948",
"f  c #373449",
"g  c #423E50",
"h  c #3F4045",
"j  c #454544",
"k  c #4A4A47",
"l  c #4D4C4C",
"z  c #46454C",
"x  c #52514E",
"c  c #4A4657",
"v  c #535353",
"b  c #5C5C5B",
"n  c #565559",
"m  c #504D55",
"M  c #615E5A",
"N  c #63625D",
"B  c #5D5A6B",
"V  c #585566",
"C  c #58536B",
"Z  c #615D6B",
"A  c #625D76",
"S  c #6B6A66",
"D  c #6C6C6C",
"F  c #656466",
"G  c #72726E",
"H  c #646273",
"J  c #696674",
"K  c #6C6C73",
"L  c #6A667B",
"P  c #6D6A7C",
"I  c #64627D",
"U  c #716D7C",
"Y  c #716E73",
"T  c #747473",
"R  c #7A7A76",
"E  c #7D7D7A",
"W  c #76757B",
"Q  c #716E6B",
"!  c #817E7A",
"~  c #82817E",
"^  c #89867F",
"/  c #6A6583",
"(  c #6E6B84",
")  c #696583",
"_  c #726E83",
"`  c #726C8B",
"'  c #757284",
"]  c #7A758A",
"[  c #7C7A8C",
"{  c #777687",
"}  c #7C7B93",
"|  c #797A96",
" . c #6E7087",
".. c #817E8C",
"X. c #827D93",
"o. c #847C99",
"O. c #7D8285",
"+. c #848482",
"@. c #8B8A85",
"#. c #85848B",
"$. c #8C8C8B",
"%. c #888789",
"&. c #908F8D",
"*. c #94938E",
"=. c #848295",
"-. c #8D8B9C",
";. c #898798",
":. c #949493",
">. c #9A9996",
",. c #9D9C9A",
"<. c #95959A",
"1. c #909196",
"2. c #A2A19D",
"3. c #898BA6",
"4. c #928DA6",
"5. c #9A9BAD",
"6. c #9796A6",
"7. c #9899B4",
"8. c #8C90AD",
"9. c #A19EA8",
"0. c #A29DB4",
"q. c #9FA1AD",
"w. c #A4A4A3",
"e. c #AAA9A6",
"r. c #A4A4AC",
"t. c #ACACAB",
"y. c #A7A8A9",
"u. c #B1AFAB",
"i. c #ADB0AD",
"p. c #B2B2AE",
"a. c #ACADB4",
"s. c #ADABBB",
"d. c #A7A5B7",
"f. c #B4B4B3",
"g. c #B6B8B6",
"h. c #BAB9B6",
"j. c #B4B6BB",
"k. c #BCBDBB",
"l. c #B7B7BA",
"z. c #B0B0B7",
"x. c #9FA09B",
"c. c #C0BEBD",
"v. c #BFC1BD",
"b. c #C1C1BE",
"n. c #C1C1B7",
"m. c #A9AAC3",
"M. c #B1AEC2",
"N. c #B5B3C3",
"B. c #B9B6C5",
"V. c #BCBCC3",
"C. c #B9B5C9",
"Z. c #BDBBCA",
"A. c #B0B2CB",
"S. c #BFBED0",
"D. c #C1BFCB",
"F. c #C3BDD5",
"G. c #BEC2C3",
"H. c #C4C5C3",
"J. c #C6C8C3",
"K. c #CACAC6",
"L. c #C4C3CC",
"P. c #CCCCCA",
"I. c #C8C7C8",
"U. c #D0CFCD",
"Y. c #CED0CB",
"T. c #D1D2CE",
"R. c #DADCCF",
"E. c #C5C3D2",
"W. c #CCCBD3",
"Q. c #CDCBDA",
"!. c #C9C5D8",
"~. c #D1CEDD",
"^. c #D0CCD3",
"/. c #CED2D4",
"(. c #D4D4D3",
"). c #D9D6D4",
"_. c #D7D9D4",
"`. c #D9DAD6",
"'. c #D4D3DC",
"]. c #D7D9DA",
"[. c #DCDCDB",
"{. c #DAD7D9",
"}. c #E0DEDD",
"|. c #DEE1DE",
" X c #E2E2DE",
".X c #D2CEE1",
"XX c #D6D3E2",
"oX c #D9D5E4",
"OX c #DCDAE4",
"+X c #DAD5E9",
"@X c #DDDCEA",
"#X c #DFDAF1",
"$X c #CFCAE0",
"%X c #E1DEEB",
"&X c #E0DEE1",
"*X c #E3DEF2",
"=X c #DFE0E3",
"-X c #E4E4E3",
";X c #E8E7E5",
":X c #E6E8E6",
">X c #E9E9E6",
",X c #E5E5EA",
"<X c #E7E8E9",
"1X c #EBECEB",
"2X c #E9E7EA",
"3X c #F0EEEE",
"4X c #EEF0EE",
"5X c #F1F1EE",
"6X c #F7F9EE",
"7X c #E6E4F1",
"8X c #ECECF2",
"9X c #E9E8F4",
"0X c #F1EFF1",
"qX c #EFF1F2",
"wX c #F3F3F3",
"eX c #F8F7F5",
"rX c #F9F9F6",
"tX c #F4F5FA",
"yX c #F7F8FA",
"uX c #FDFDFD",
"iX c #F7F7F7",
/* pixels */
"| O.| O.s.Q.Q.A.O.) I A (  . .| | | } ( / H V d a w q 6 2 2 2 2 2 2 2 @ * $ 2 2 w + q 2 2 2 2 > 1 < 2 2 3 ; 3 3 9 a c ;.!.7X@XW.",
"| | O.8.m.$XQ.G.} ( ) A )  . .| | =.;.} ( B V n J K O.;.<.q.d.a.i.q.<.;.T v q @ + q > w > @ : : < < 4 2 2 3 ; , 9 w c ` A.@XoX~.",
"O.8.8.7.s.G.E.M.} ( ( I I  . .} 3.[ ( { ..-.r.j.E./.'.|.=XOXXX'.=X=X=X=X=X].G.q.n @ 2 ; w 4 : 2 2 1 4 2 2 2 2 2 : w f A 5.XXoX'.",
"7.7.7.7.d.N.s.5.} ` ` ) ) | ` O.=.=.-.q.N.L.'.=X/.'.].].=X<X8XqX=X=X=X9X9X8XqXqX9X<.q $ > 4 > 2 1 1 2 2 2 2 : ; 9 w d B 5.XX=XoX",
"8.8.7.8.7.7.5.3.| ) ` ) )  . .| [ 6.G.Q././._.|.<X,X=X=X:X=X=X<XqXtXyXtX8X9X8X8XuXtXB.h 2 2 : 2 1 2 2 2 2 : ; 2 1 w d C 5.XX,X%X",
"8.7.7.8.8.7.4.o.| ` ) ) ) ( ( [ 6.z././.'.|.=X|.|.|.:X>X4X4XqXqX=X=X9X8XtXtXtXqX7X8XuXE.> s @ w < 2 : 2 > 2 2 ; 9 e f B 5.~.*X7X",
"8.m.A.m.m.7.7.4.o.` ) ) ) (  .-.G././.|.=X:X|.Y.|.|.|. X:X<X<X=XyXyXtX9XtXtXqXqXuXqXtXyX{ + w 2 < < 2 2 2 2 2 2 9 e d A d.XX7X9X",
"7.m.A.A.A.m.m.7.o./ )  .) ` O.q.(.Y._.|.|._.Y.R._.|.|.|.-X1X4XqX8XqXqXtXqXqXqXtX8XyX8XtXqXh 2 2 < < 2 2 2 2 ; ; < w g ' N.%X9X9X",
"7.7.0.0.s.F.F.D.4.` ` / A / o.^./.T.(.|.R.J.R.R.Y._._.|.=X,X1X8X<X4XqXqXqXqXqXqXyX9XtX8XyXr.$ 2 : < ; 3 ; ; 2 ; 1 e d ' S.7X9X9X",
"| 4.7.5.c.F.$XF.7.` ` ` / ` 4.W.G._.:X|.T.b.b.n.Y._._.|.:X-X1XqX8X8X8XqXtXyXtXqXuXuXyX<XtX].u > : ; ; ; 2 3 ; : 1 e d ( C.7X9X9X",
"| 3.9.0.M.$X+X$X0.o.` / P L s.OX(._.:Xv.v.v.v.v.b.Y._.|.|.=X,X1XqX8X8XqXyXyXtXqX=X8XqX8XyXuXF > : < ; , ; - ; 3 : 0 f L N.*X7X9X",
"I [ -.4.s.~.#XF.d.o.` / ( J L.'./.].uXG.g.i.i.p.v.K.Y.|.|.=X,X1X1X8XqXyXuXuXuXuXuXtXtXtX9XyX<.$ : ; ; 3 ; 2 ; 2 : 0 f A M.%X9X9X",
"s C P O.9.F.oX.Xd.o._ L ' ..!.l.F ;.=XG.g.y.t.v.v.G.T.|.|.=X,X<X=X4XqXyXyXyXyXyXtX<XtXqX9XtX/.@ < : ; 3 2 - ; ; : e s B s.@X7X8X",
"d H O.-.e.D.oX.X0.o.../ A #.{.D.y.B.=XG.f.q.,.e.v.v.G.Y.'.[.=X,X=X4XqXwXyXyXyXyXtX8XqX<X9XyXyXh ; < ; ; ; 2 ; 2 : e s C d.+X9X8X",
"K 5.G.G.D.^.oX+X0.o...L Z 1.{.z.B.G.W.z.q.2.r.r.f.l.J./.'.].OX=X=X:X1X4XyXuXuXuXyXyXuXuXuX=Xz.d : : ; 3 ; 2 ; : : 0 a C 0.+X7X9X",
"O.A.+X+XF..XoXF.D.o.` U A y.D.K T d.G.G.t.q.i.i.j.G.P./.[.=X<X<X4X=X=X|.]./.P.L.z.$.K n h ;   + < ; , ; ; ; ; : : 0 e V 9.XX%X7X",
"O.G.+X$XoXoX'.XXC.[ ] _ H a.#.% u l b x j x n N b M N b v l j y t % , # = r # #     X   - 2 T K + 4 3 , % , , , , 0 u m 6.XX=XqX",
"` A.#X+XXXQ.!.Q.M.;.` ' J I.:.3 G b &   X                       X X X # r z v j G F T T E G.tXf.% , , , , , , , > 9 w z -.Q.%X8X",
") 8.G.!.L.Q.XXoXN.-.( J =.OXf.u l ~ b j t i j y r r t t t p k x t ..>.f.I.P.P.+.t 5 & O t |.yX|.u & = , , < , , , 9 w z 3..X@X8X",
"d ) O.8.6.Z.XXXXC.;.] A s.[.I.v v y.t.w.G k - - - = & & & o     ! }.2X0XwXyXuXh.X . X # i ].|.wXl & , , , 1 $ , , < w g O.G.#X9X",
"c C ' { -.B.XX'.M.;.X.P a.y.k.T k E >.g.+.x   # 8 O . #     k t.).;X&X3X3X1XuXyX=Xn     o G.-XiXn $ , , > , $ , : 2 w g O.G.#X9X",
"B ;.s.z.N.Q.oX+XN.-._ P J V <.>.N R :.y.2.$.- o 3 #     t %.H.).}.P.^.}.3XtX1X1XiX1Xf.x 5 Y.uX].g , % > = , , , : 2 q d  .G.#X9X",
"( s..X.XoXoXXXoXC.-.P J z 4 #.,.F D G v >.v.E - . O j ,.Y.P.c.k.e.e.u.c.|.uXuX1X<XuXuXqX8XwX0X'.5 , % , , , , , : : q h P A.+X7X",
"} C.+XOX7X,XoX@XC.=.] ' H 4 #.$.F D D 2 R t.[.>.T e.K.k.t.p.w.:.,.9.u.D.-X4XuXwXwX|.<XqXrX<XuXw.% < , , , , , > : > q d H m.!.+X",
"[ C.+X=X%X%X,XoXN.4.H ' r.f.z.! D R N t x $.f.g.J.b.f.y.w.w.e.e.e.9.e.P.(.uX0X<X1XyX;XyX2X1X0XD X w $ q , % < , ; 2 q d A =.d.m.",
"[ B.oX@X%X%X@X'.Z.X.P J J a.&.+.M +.b l & k x.>.w.y.t.g.H.P.h.w.e.2.f.k.&XwXwXuXuXwXwXuX1XeXuXI.m + 6   < , & < : 2 0 s c L ] } ",
"{ N.XX@X%X%X%X'.C.6.H V #.y.f.E R g.v y r *.t.%.t.H.`._.P.c.h.f.e.t.l.t.].wXeX1X-XuX&XeXuX;X3XuXtXV % r , & , & : 2 e s g C A A ",
"' s.Q.@X%X%X,XOXN.[ B F K ,Xe.G e.K.E i k b.f.v.P.(.).(.P.P.c.i.y.f.f.D.~ #.&.H.uX3XuX1X1XuX2X&X8X8Xg # , 6 , $ : 2 e s c C ) / ",
"( s.~.OXOXOX%X+XD.[ B F D.9.N p.|.f.f.~ T g.2.G.K.T.T.I.P.I.k.i.v.g.T v . F n 6 <.2XuX0XeXeXwX&XL.9Xy.X 5 , # , > > 1 f C C ) ) ",
"P d.Q.oX'.W.'.'.W..._ D.<.K &.Y.|.P.I.i.f.i.>.>.k.(.].(.K.P.J.v.i.v $ k T J.=XK.&.$.&XuX2XwX3X0X,Xr.E.q 0 . % , > 1 e f g C A / ",
"J d.!.'.W.L.~.oXs.6.F.#.#.6.p.2.f.(.H.w.t.>.,.w.h.H.H.I.[.[.k.:.i n 1.Y.<X-XuXuXuX(.u.}.uX3X1XwXG.N.B.2 > 6 , > > 1 e f c A ` o.",
"Z r.!.'.W.L.'.@XD.E.6.1.'.f.2.>.:.>.g.J.g.y.w.:.,.h.(.).T.p.T y 1.v.g.v.|.-XwXyXeXuX0X2X0X0XtXyX/.a.=Xl o , , > : > 1 a c ` 0.$X",
"Z <.!.OXXX'.oX^.H.D.%.p.>X}.R.c.q.O.O.q.g.v.t.y.2.e.c.).U.c.c.D.v.w.e.J.(.}.uXeXrX5X>XuX3XeX5X3X3X^.uXF * , , > > , 0 s g o.F.+X",
"Z =.D.'.OX%X~.D.l.9.Q K.R.6X;Xc.G.q.q.O.O.i./.v.b.b.U.R. X).U.}.g.i.e.h.T.[.;XeX>X5X3XrX3XeX5X3XuX2XuXK $ , , > , > 0 a n o.F.%X",
"m L 6.D.~.oX!.a.9.#.M ^.U.R.c.c.G.G.G.a.O.i.-X|.R.c.c.c.R.).).}.G.f.i.p.H.`.;XuX3X5X>X5X5XeX1X5XyX2XuXF . , $ > , > 0 g m 4.^.*X",
"d m [ a.!.~.D.d.-.1.Z <.H.c.e.t.i.a.G.G././.].|.R.u.x.c.b.).).}.|.i.p.i.f.(.>X5XuXeX>X3XrXeX;XeX0XtXuXT * , > < : > 1 w m 4.F.*X",
"d C ;.N.!..XF.d.;.<.U F 9.d.c.e.q.q.i./.].Y./.|. XT.h.u.c.U.{.}.).c.e.u.c.U.(.;X[.>XrX5XrXeX>XrXeXyXuX..O , $ , : > 1 a g o.~.*X",
"g P d..X*X+X!.s.4...U ' ! ..9.a.a.m././.t.f._.|.>X XK.u.w.c.U.).).}.f.>.,.N p v ! c.uX3X3X5X3XeX3X0XuX<.O , $ , : > 1 e c o.F.*X",
"g ] C.+X#X+X!.D.0.;.U [ C V ! <.q.G./.g.t.g.U.T. X3X XK.e.u.c.U.I.[.c.f.@.7 = 6 8 R >X3X>X5X3XeXeX3XuXt.$ < , 1 > > 0 g g o.F.*X",
"g ] C.+X.X+X+XF.D.s.] V U L C A O.j.G.i.p.2.e.R.R. X5X>Xc.:.2.I.U.K.P.).N   &   & k U.eXuXeX5XuXrX2XuXe.X # # * > > 1 g g o.F.*X",
"g U M.+X+XoXoXoXF.c.o.A A Z J U T O.v.G.q.x.y.v.R. X X6X3Xh.&.l.c.D.).u.o X X X o b ,.}.>.8 Q U.3X6XuX2.M Y F Z g 0 > 1 g ..D.+X",
"e U c..X+X%X+XoXoXD.o.! J Z A A W O.x.v.x.>.v.e.U.U.5X3Xc.R %.@.p.U.).t X O X X o t 8   X % - M c.eX}.>XiXeXuX0X0X.X0...V U s.#X",
"s Y s.}.#X{.{.F.c.9.! Q Y Z Z ! O.T O.v.i.^ *.x.u.R. Xp.= X   3 x G 8   O O   X X x O . j 6 = r >.5X).}.}.&X&X0X2XtXyXyX0XF.D.D.",
"u Z 6.F.F.c.9.>...! ! Q F n g M T T S >.v.@.S R *.u.>X^ X - = = t x   = 7 O X # Q 2.O = b 7 Q @.b.3Xe.w.;X3X;X3X0X2X7X0XtX0X3X+X",
"o ! o.c.c.c.>.*.^ ^ ^ ! N p y x *.x.*.^ *.>.G R ~ ^ }.c.o 5 x # S $.M # = 8 t b ! f.D 6 G U.;XK.T. XS x rX XrX3X3X3X3X>X0X0X0X0X",
"k o.U.U.D.).K.c.^ ^ ^ N M x y p x.R S x S *.R M S G x.5Xl O x F I.h.8   . 7 5 n >.2.U.[.3X>XH.}. XuXc.# ).}.}.>X>X3X3X6X0X0XeX0X",
"u.{.;X}.K.K.c.u.2.^ ^ M x x 8 t x S ^ ^ G N R *.! G ! K.}.&.(.uXuX:.  . .     O b :.h.c.b.P.-XeXrX6XrX8 ! 6X>X6X6X3X3X3X3X6X3X3X",
"}.{.).R.R.U.n.c.n.^ ^ S M p & X *.u.*.^ ! S G R &.2.>.>.h.&X&X-Xu.% X .     % - y D ^ ,.P.>XeX5XuX XrX2.& }.>X;X;X>X3X3X3X3X5XeX",
"}.{.).U.Y.b.b.b.c.u.&.G N t O   2.2.x.^ ^ ^ ! G G ~ @.*.>.9.*.T 2 O . 3 n O.i.v.v.v.Y.|.1XqXtXqXrX>XrXuXy +.rX:X1X4X>X>XuX5XrX6X",
"{.).U.U.R.b.R.b.n.h.w.*.G 8   O >.2.x.*.*.*.^ ^ ^ @.&.*.2.h.c.h.v.G.Y.|.qXyXqX<X=X1XqXtXyXyXyXtX6XuX1X6XJ.y |.>X:X>X5X>XuXrXuXeX",
"R.U.U.U.Y.Y.U.K.n.n.h.2.E o   = 2.2.2.2.2.2.>.>.,.2.p.h.H.(. X;X1X4X4X4X4X1X<X<XqXqXqXqX4X4X4X4XwXwX5XwXuXG +.iX X-X5X>XeXrXuXuX",
"n.K.K.K.Y.U.Y.K.b.K.h.g.b     j p.u.2.e.c.h.p.n.n.J.T.[.;X;X>X1X:X<X1X1X:X1X1XqX4X4X4X4X4XqXqXqX6X:XuXwX4X>Xn _.5X X:X;X3XrXeXrX",
"K.K.U.U.U.R.U.U.K.P.Y.l.o o   ~ h.p.u.h.b.Y.Y.|.}.}. X>X1X3X3XwX<X4X4X4X1X1X<X1X4X4XqXqXqXqXqXqXwX4X6XqX4XuXw.~ wX;X}.;X1X6X3XuX",
"c.K.n.U.R.b.U.U.(.k.tXR   X & i.h.v.h.K. X X X>X>X>X>X1X3X3X3X>XqX4X<X:X:X1X4X4X1X1X1X4X4X4X4X4XwXrX1XrXrX<X4Xb U.3X}.>X3X5X5XrX",
"n.K.U.U.R.R.).U.(.J.P.3 #   k J.v.b.K.R. X5X>X1X>X1X3X3X3X1X>X,X:X:X<X4X4X4X4X<X4X4X4X4XqXqXqXqX6X4X4XrXwXwX6X,.+.-X X>X3X>X5X5X",
"n.U.U.R.).).).).T.<XD   & X D (.K.Y.R.R. X;X:X1X>X3X1X>X,X1X3X1X4X4X<X<X<X<X1X1X4X4X4X1X<X4X4X4XqX4XiX4XwXuX4X4Xj ).}.;X}.}.3X>X",
"b.Y.P.(.).(.].).].[.% . # . y.I.Y.Y.T._.|.=X X1X:X<X<X<X<X<X4X8X<X1X1X:X4X4X4X:X1X1X4X4X4X4X4X4X4X4X6XwXwX6XiX6X$.R 3X`. X;X;X;X",
"J.K.K.(.].(.>XK.>XQ   #   3 W.P.J.Y.T.|. X>X:X:X<X<X1X<X4X<X<X<X1X1X1X1X:X4X1X1X4X:X:X4X4X4X4X4X4X4XqXwXwXwXtXiX;Xv H.1X}.[.3X;X",
"J.P.P.).).`.-X].W.O   $   l [.v.G._./._.:X:X:X:X:X<X<X<X<X<X4X<X1X1X1X1X4X:X4X4X1X4X1X1X4X4X<X4X4X4XqX4XwXwXwX5XuX@.~ -X}.}.;X X",
"J.T.(.).P.-XK.wXD   X X   E W.k.Y.T._.|.:X1X:X:X:X:X<X<X<X<X<X8X<X1X:X1X4X<X4X<X1X1X4X4X4X4X4X4X4X4X4X4X6X5X5XwXwX Xx b.;X-X[.}.",
"J.(.(.`.Y.[.OXK.+   X   ; e.H.I._.]._.].:X:X:X<X:X:X<X<X<X<X<X<X<X1X<X1X<X4X:X4X1X1X1X1X1X4X4X4X1X1X4X4X4X4X5X5X5XuXS ^ >X).[.}.",
"I.P.).).).(.tXb   X   X h V.H.'.].|.|._.|.:X=X<X:X<X<X=X<X<X<X<X<X<X1X<X<X:X4X<X1X1X1X1X4X1X1X4X1X1X6X4XwX5XwX5X1XuXc.- ).}.).}.",
"I.U.(.(.].].k.@ .   X   K J.V.].|.|._._.:X=X=X<X<X<X<X<X<X<X<X<X<X1X<X1X4X<X<X:X1X1X1X1X1X4X1X1X4X1X1X4X4X5X6XwX>XuXrX6 +. XP.[.",
"P.(./.Y.(.,Xb     X +   %.I.i.OX_.]._.|.|.:X=X=X=X=X<X<X<X<X4X1X<X:X<X<X:X:X4X<X:X1X1X1X1X1X4X4X>X1X4X4X5XwXwXwXrX XeX&.6 U.U.(."
};
