/* XPM */
static char *result[] = {
/* columns rows colors chars-per-pixel */
"64 64 212 2 ",
"   c #040406",
".  c #080506",
"X  c #070608",
"o  c #080608",
"O  c #0B0B0C",
"+  c #100D0F",
"@  c #0C100E",
"#  c #10110F",
"$  c #0E0E10",
"%  c #141414",
"&  c #181615",
"*  c #171818",
"=  c #1B1B1B",
"-  c #211E1D",
";  c #1E201D",
":  c #1F1E21",
">  c #201E20",
",  c #1E2223",
"<  c #232323",
"1  c #282727",
"2  c #2B2A2B",
"3  c #312D2C",
"4  c #33312E",
"5  c #3B362F",
"6  c #2F2E31",
"7  c #2A3134",
"8  c #343333",
"9  c #373638",
"0  c #3C3B3C",
"q  c #423D39",
"w  c #3D3E44",
"e  c #3F4248",
"r  c #444443",
"t  c #484646",
"y  c #4C4C4B",
"u  c #524B44",
"i  c #504E4C",
"p  c #57534D",
"a  c #494B51",
"s  c #4D5155",
"d  c #525153",
"f  c #575858",
"g  c #5B5B5C",
"h  c #625B55",
"j  c #69625B",
"k  c #736854",
"l  c #5D5E61",
"z  c #5C656A",
"x  c #646463",
"c  c #696767",
"v  c #6D6A64",
"b  c #6E6C6B",
"n  c #756E65",
"m  c #716E6B",
"M  c #7A7365",
"N  c #76726C",
"B  c #7B756C",
"V  c #6D7174",
"C  c #747473",
"Z  c #777677",
"A  c #7C7974",
"S  c #7D7C7A",
"D  c #817A6D",
"F  c #847E73",
"G  c #817D7A",
"H  c #7F807F",
"J  c #9D8964",
"K  c #85827C",
"L  c #8C8579",
"P  c #968A77",
"I  c #A29279",
"U  c #D6B77E",
"Y  c #DBBC7E",
"T  c #DEC17F",
"R  c #777D83",
"E  c #7E94A8",
"W  c #858583",
"Q  c #898581",
"!  c #8C8A85",
"~  c #858A8B",
"^  c #8C8B8A",
"/  c #918D85",
"(  c #918E8A",
")  c #97928A",
"_  c #95938D",
"`  c #899094",
"'  c #959592",
"]  c #999693",
"[  c #9C9A95",
"{  c #94999D",
"}  c #9D9D9A",
"|  c #A79B84",
" . c #A09B93",
".. c #A19F9B",
"X. c #BAA888",
"o. c #A4A29D",
"O. c #A8A39D",
"+. c #8999A6",
"@. c #99A4AB",
"#. c #95A6B2",
"$. c #A5A5A2",
"%. c #A9A6A2",
"&. c #A7A8A7",
"*. c #ACAAA5",
"=. c #ADADAA",
"-. c #B1ADA5",
";. c #B1AFAB",
":. c #AFB1AC",
">. c #B3B1AD",
",. c #BFBAAF",
"<. c #A6AEB6",
"1. c #B1AFB0",
"2. c #AAB4BB",
"3. c #B5B5B2",
"4. c #B8B7B3",
"5. c #BABAB5",
"6. c #B5B9BA",
"7. c #BCBDBA",
"8. c #C4AD85",
"9. c #CAB289",
"0. c #D7B881",
"q. c #D4B887",
"w. c #DCBD85",
"e. c #DDBF89",
"r. c #CBB899",
"t. c #D4BD97",
"y. c #E2BF85",
"u. c #E0BF89",
"i. c #E0BF94",
"p. c #CBBCA4",
"a. c #C4B9A8",
"s. c #C9BEAA",
"d. c #C7BEB4",
"f. c #C1BEBA",
"g. c #BFC0BC",
"h. c #DFC085",
"j. c #DFC08A",
"k. c #DDC394",
"l. c #D4C09B",
"z. c #DAC49C",
"x. c #E1C286",
"c. c #E3C48D",
"v. c #E9C68B",
"b. c #E6C88A",
"n. c #E9C98D",
"m. c #E4C592",
"M. c #E8C792",
"N. c #E6C992",
"B. c #EACB94",
"V. c #E6C798",
"C. c #E4CA9E",
"Z. c #EACC98",
"A. c #CDC1AA",
"S. c #DBC6A4",
"D. c #CAC1B3",
"F. c #C2C2BE",
"G. c #CAC6BC",
"H. c #D7CBB6",
"J. c #DED1BA",
"K. c #E3CCA5",
"L. c #E7D6B9",
"P. c #ABB8C5",
"I. c #B6BCC0",
"U. c #BCC2C5",
"Y. c #BBCED4",
"T. c #C4C4C2",
"R. c #C8C7C4",
"E. c #CACAC5",
"W. c #C6C7C8",
"Q. c #C5C9C8",
"!. c #CDCDCA",
"~. c #D1CDC9",
"^. c #CFD0CD",
"/. c #D2D2CE",
"(. c #DAD4CB",
"). c #CECED1",
"_. c #CCD2D6",
"`. c #D4D5D2",
"'. c #D8D7D4",
"]. c #D7D8D4",
"[. c #D9D9D6",
"{. c #D5D6D9",
"}. c #D6D9DA",
"|. c #DCDDDB",
" X c #E3D9C9",
".X c #E4DED1",
"XX c #E0DFDD",
"oX c #DFE0DD",
"OX c #EEE3CE",
"+X c #E1E1DE",
"@X c #EAE5DA",
"#X c #D0D9E3",
"$X c #DCDEE0",
"%X c #E0DFE2",
"&X c #DFE1E2",
"*X c #E4E4E3",
"=X c #E9E6E4",
"-X c #E6E8E7",
";X c #EAE9E6",
":X c #E4E6E9",
">X c #E7E9E9",
",X c #EBECEC",
"<X c #F0EFED",
"1X c #EEF0EF",
"2X c #F1F0EE",
"3X c #E6EDF0",
"4X c #EDEEF1",
"5X c #EFF2F4",
"6X c #F3F3F3",
"7X c #F4F5F9",
"8X c #F8F8F9",
"9X c #FAFAFC",
/* pixels */
"x.h.Y h.j.b.b.h.N.N.c.c.j.w.c.m.V.i.i.V.Z.V.m.M.M.c.c.x.j.j.j.c.N.e.c.j.N.c.b.k.B.B.j.e.w.0.B.m.c.x.c.c.c.c.y.e.e.w.w.w.Y Y Y x.",
"x.x.h.h.c.c.c.c.j.c.j.j.c.c.m.m.M.i.i.V.V.M.c.c.e.i.z.r.A.A.D.D.F.D.D.A.A.p.t.l.k.B.m.N.e.w.m.e.y.e.e.y.u.u.u.e.y.y.y.h.Y Y T x.",
"x.h.x.h.j.h.j.c.h.j.j.c.c.e.e.c.V.V.V.m.M.m.e.t.H./.{.{.}.}.}.{.`.{._._.^.Q.Q.T.7.a.r.k.m.j.c.w.c.b.c.v.u.c.c.y.y.m.v.c.x.x.x.b.",
"h.x.x.b.b.c.x.c.c.c.c.c.c.c.c.c.i.V.Z.m.M.m.J.%X:X,X>X>X>X>X:X*X*X&X*XoXoX|.[.{.`.!.Q.f.a.k.N.c.c.v.c.c.u.u.u.w.u.v.v.c.b.n.n.b.",
"h.h.c.N.B.b.c.j.w.c.e.c.c.c.m.m.u.V.m.V.V.[.3X5X4X4X5X5X,X1X,X,X>X-X-X:X:X*XoXoX|.|.`.^.R.f.S.c.c.v.c.j.w.c.c.e.c.B.c.c.v.n.v.T ",
"h.h.h.b.N.b.e.w.c.c.c.e.w.c.c.c.e.c.m.m.'.3X5X5X5X5X5X5X5X1X5X,X,X,X>X:X:X*X*XoXoX+XoX[./.E.f.t.x.v.c.c.c.B.B.M.B.c.v.c.b.b.x.Y ",
"h.0.h.c.b.w.Y w.v.b.c.c.e.e.u.c.c.e.u.L.,X7X7X5X5X5X5X5X5X,X5X4X,X,X>X>X*X&XoXoX|.|.XX+X|./.!.G.j.c.x.h.e.c.m.c.c.c.c.x.b.x.Y Y ",
"b.j.c.c.c.U 0.c.c.b.c.c.e.e.c.c.c.e.k.*X5X4X5X5X7X5X5X5X5X5X4X,X4X>X>X:X*X&X}.{.`.`.`.|.+X`.!.!.A.h.c.Y w.c.c.c.u.y.c.v.x.x.Y x.",
"B.c.c.m.b.b.c.h.w.c.c.U w.b.b.c.u.M.L.4X7X6X5X7X7X5X5X5X5X<X4X4X,X3X:X:X%X$X{.`.).!.!.{.XX'.).~.Q.e.w.w.w.w.c.b.N.B.B.N.c.h.c.c.",
"e.j.j.c.c.j.c.c.c.c.c.w.w.b.c.c.c.i.XX2X5X5X5X7X5X7X7X5X5X5X4X4X3X>X:X*X$X{.{.).Q.W.T.!.XXXX/.~.!.l.w.h.j.c.c.B.m.N.B.B.b.c.j.c.",
"e.c.c.e.j.c.c.n.c.c.c.c.j.h.e.c.u.S.4X5X5X7X5X7X7X9X9X9X7X4X4X4X3X:X:X$X$X{._.W.U.g.7.g.!.%XXX).!.D.w.j.c.c.N.V.N.V.B.B.m.c.c.h.",
"c.c.c.c.c.c.N.b.b.B.b.c.c.x.h.b.e.J.4X5X7X5X5X7X9X9X9X9X9X5X4X3X:X:X:X$X{.`.!.T.6.1.3.4.T.<X%XF.!.G.e.x.c.j.c.c.N.B.B.N.c.c.j.c.",
"c.c.c.c.c.c.c.c.B.c.c.b.c.j.b.B.i..X4X5X7X5X5X7X9X9X9X9X9X4X3X:X:X&X&X}.{._.W.7.:.=.=.:.U.*X` R 6.E.e.c.j.h.j.j.j.j.b.N.m.m.b.m.",
"w.w.e.c.c.N.j.c.b.c.x.c.x.h.x.c.z.=X4X5X4X5X5X7X9X9X5X9X7X4X3X:X:X&X$X{._.!.U.6.:.$.$.=.7.`.P.<.I.~.z.c.h.j.j.N.j.b.N.N.b.m.j.w.",
"e.e.w.e.c.c.c.j.h.h.h.h.U Y h.h.8.&.{.3X7X7X7X7X9X9X9X9X7X3X:X:X&X$X#X`.).W.7.1.&.$.$.$.6.).U.2.I.Q.A.b.j.h.h.k.m.V.V.V.N.c.j.w.",
"m.c.w.e.c.c.c.j.w.j.x.h.x.w.x.x.J * 2 t l V ^ %.I.W.W.).).`.{.|.$X}.`._.Q.U.6.<.&.@.@.$.3.6.{ R V 7.A.b.j.h.h.j.N.m.j.j.j.c.N.m.",
"m.v.c.c.j.e.c.c.B.c.j.U e.N.b.B.l.V 9 , % O O % < 8 w 6 1 1 8 0 r y s f f l l l l f d y d g d 0 1 ( s.e.e.y.c.c.c.M.B.c.w.e.c.B.",
"c.c.c.c.c.c.m.c.e.e.c.c.c.c.c.c.OX*X3.C x x g f s y y 9 1 * + + O X           X O O O O $ 2 c x 9 Q ~.m.c.w.x.y.c.c.b.c.y.c.c.b.",
"m.c.c.c.c.c.N.c.c.e.c.e.w.c.c.Z.@X;X[.0 * ; 2 0 Z Q.Q.F.=.] Z y 0 0 9 8 4 4 4 8 8 9 8 9 t g N p q -.(.z.x.y.c.c.0.w.e.x.b.c.b.c.",
"N.c.c.m.c.c.c.c.N.c.m.c.w.c.w.C.@X=X^.7 # @ @ 7 7.6X6X6X,X%X).Z ; @ @ @ % ; ; ; - < t m [ &.) p h 4.(.H.w.y.B.B.y.e.y.x.c.c.x.c.",
"B.c.c.c.e.c.c.c.c.c.B.v.c.c.0.k.@X@X5.< @ % f E.6X6X6X2X;X-X+X/.] r @   X @ * 1 = @ i K -.O.K u D 1.&.-.e.u.m.v.B.B.v.c.x.y.u.c.",
"N.j.e.c.u.u.c.c.m.e.c.e.e.e.0.k.+X1XF.r f @.>X6X6X6X6X,X].^././.!.5.! 0 % o # ; & < L [ ..) M j ( [ l Z q.y.y.y.v.n.v.c.w.h.b.c.",
"c.e.e.c.c.j.j.e.N.c.u.0.0.c.u.V.(.<X4X&X,X6X5X1X1X6X8X-XG.>.*.:.7.F.F.4.! y - % < W :.[ g Z n n _ S 7 i 9.y.c.w.e.b.c.c.e.y.c.b.",
"c.w.e.c.c.w.0.0.c.c.c.u.c.m.c.b.H.,X6X6X5X,X1X1X6X6X6XoXg.:.o.o.} $.:.4.7.4...S [ T.*.C 9 j v N ^ G w B u.c.v.c.h.c.v.c.y.e.w.Y ",
"N.c.c.c.e.0.w.v.c.c.c.w.u.c.N.B.k.=X2X,X6X6X6X6X4X6X8XXXg.*.o.o.o.*.*.*.=.3.5.5.6.*.( r e l N n K %.*.A.B.c.x.x.x.c.c.y.w.c.c.v.",
"c.e.c.c.c.e.c.B.N.N.m.c.c.c.c.K.@X2X6X6X6X6X6X6X<X6X6X|.g.:.*.o.*.4.T.T.7.3.;.=...[ g 8 e l K v K ..*.t.B.b.y.c.c.c.c.y.y.b.c.c.",
"c.c.m.c.c.u.c.c.e.c.c.c.c.M.K.=X,X6X6X6X6X6X6X6X7X>X%X{.g.:.*.*.:.5.T.!.`./.T.%._ o.~ 0 w l &.A L %.D.c.c.c.e.w.c.c.y.c.c.c.x.w.",
"c.b.B.c.e.e.e.e.w.e.c.c.c.Z.=X:X*X6X8X6X6X6X6X,X6.~ ` R =.3.:.:.>.7.T.!./.`.`.!.g.>.3.s w R I.1.K O.(.m.c.y.e.w.c.h.c.c.n.B.c.Y ",
"0.c.c.c.c.c.m.u.c.c.c.e.m.L._._.*X2X6X6X6X6X*X{ s V z , l V =.>.3.7.Q.^.`.`./.R.4.%.:.Z W 3.g.^.*.n  .H.c.j.h.y.y.x.c.c.B.v.y.0.",
"c.m.B.c.c.c.w.w.c.c.c.c.c.(.P.#X;X<X6X6X6X=X{ { I._.7.Z z 7 x @.5.F.E.^././.!.F.*.} *.=.:.g./._.T.] S ( p.k.j.w.w.y.x.c.b.c.y.0.",
"B.B.B.N.c.e.0.U e.u.c.e.e.E.P._.2X<X6X6X%X7.{.6X8X8X>X|.P.~ l a ^ U.^.`./.!.G.>.} [ o.:.>.F.U.U.<.#.+._ ) s.j.x.c.c.v.c.y.w.y.e.",
"c.c.m.N.m.c.c.c.m.N.m.v.V.{.P.Y.5X<X2X6X<X<X2X6X8X6X*X{.T.4.:.! f R 3.`./.E.3.o.} o.%.>.g.2.#.E #.<.6.7.] [ S.b.v.B.B.c.w.w.w.x.",
"m.m.k.c.V.k.m.N.Z.M.V.m.K.=X{.<X2X2X6X6X6X2X2X6X8X2XXX`.7.;.-.4.T.3.1.XX(.5.*.$.*.;.I.2.+.+.+.@.P.}.oXoX4.L a.Z.v.c.c.B.b.0.h.b.",
"m.c.u.c.c.m.m.V.i.u.u.u.K.=X4X6X<X2X6X6X6X2X2X6X8X,XXX!.4.-.=.7.`.|.XXXX'.!.R.T.T.Q.<.E E +.<.T.E.[.2X+XG.D | V.B.B.c.c.x.x.x.x.",
"c.m.e.j.c.m.k.m.e.i.v.u.K.;X6X6X2X2X6X6X6X2X2X6X6X,X|.R.3.=.;.R.[.|.'.).T.4.f.).|.oX2.+.#.7.7.4.4.G./.!.f.n I N.v.c.c.w.h.b.b.h.",
"k.m.m.e.c.k.j.j.u.m.M.i.K.<X6X6X2X<X2X2X6X6X2X6X6X=X{.5.=.;.7./.|.[.`.!.4.=.4.`.oX[.].T.F.5.;.=.>.>.,.g...v X.N.c.c.c.x.b.B.b.h.",
"e.c.c.j.j.N.j.Z.c.c.c.c.L.2X6X6X6X2X2X2X6X2X<X%X[.).f.;.&.;.R.{.[.{.~.5.-.4./.*XoX/.E./.E.4.*.&.*.:.*.o.N P j.c.N.B.B.b.b.b.x.x.",
"c.c.N.j.N.c.b.N.c.M.B.c.L.2X6X6X6X6X2X2X6X2X7.Z g p C ] $.4.).[.`./.F.=.;.).*X*XXX!.g.5.~.`.=.*.*.o.K M I w.c.c.c.N.b.c.x.x.c.x.",
"b.N.j.j.b.N.j.j.N.m.c.n.L.2X6X6X6X6X<X<X5X=XG t < > 2 Q 4.f.`.`.!.T.;.&.!.=X=X*X[.T.>.>.7.E.f.*.[ L I 9.c.j.c.B.w.c.j.j.0.c.b.c.",
"h.h.h.h.j.c.j.j.c.c.c.c. X6X6X6X8X<X=X2X2X!.p * O O # f R.!./.!.f.=.} 7.-X;X=XXX~.4.%.*.4.f.f.9.q.j.h.j.w.j.m.B.0.c.N.0.h.N.b.U ",
"h.h.h.j.j.h.j.j.K.K.K.i. X<X6X4Xf.N i ' W.' d & X X O : } ).T.7.=.} 3.+X,X;X*X{.f.=.O.$.3.d.t.m.V.N.j.j.j.j.c.k.0.w.B.b.b.j.c.w.",
"h.h.h.b.K.L.@X@X=X;X@X=X=X,X<XF.x 3 * * > 6 e + X X o O e 6.7.*.^ b A 5.>X=X[.E.>.%.} o.f.s.u.B.b.m.b.N.c.b.c.j.w.c.Z.n.b.j.w.w.",
"h.C.L.@X;X,X1X,X,X=X=X=X(..X=X..u 1 3 w & & y : X   O O o w m g 6 % O 2 ;.*XE.3.o._ _ %.1.L | 9.j.k.j.j.q.q.j.j.w.b.V.B.j.c.0.e.",
" X@X1X1X2X,X1X,X<X,X;X=X-.-.%Xf.Q m q d > 1 ^ l : % * > * > t 5 * < * & ' [.>.' K S ^ ;.[ A A D M k k M D L L P ) X.9.k.w.c.e.h.",
"2X2X2X2X2X2X2X<X<X;X,X=Xn F '.(.~.`.5.G r c -.G a 9 6 > * i ^ c 1 d 1 - >.~.( A m N ] ] G ( [ Q u q u k B A L P o.O.>.a.p.C.c.c.",
"2X2X2X2X2X2X2X<X<X;X<Xf.8 >.6X<X{.'.%XXXW.f.%.^ h 2 > +   2 1.T.C t 1 f (.O.A N m G ( v x v A _ p 5 u p k B L ] *.g.R.!.!.~.H.k.",
"2X2X2X2X2X2X;X2X<X;X<XZ i ;X6X8X<X%X(.W.f.1. .h = .     . O ^ ,X,XE.o.~.F.! F K Q G v m G ! A h 5 5 u p j B ) O.,.F.^./.'.'.(.H.",
"8X2X2X2X2X2X;X,X;X;X/.9 ..8X6X6X6X6X%X~.*.^ b y 6 = X     O 2 &.[.oX/.3.} ] _ ! S m N G Q ) %.G & - u p v K } :.g.R.!./.[.oXoX].",
"2X6X8X6X2X<X,X,X;X;X! f =X6X6X8X6X8X6X,X+X!.5.>.:.*.~ f 7 : : 9 A o.%.} _ _ K A A S K ! / _ :._ & + q k D _ *.5.F.E.E././.].oX+X",
"8X9X8X8X<X,X;X;X;X/.d T.8X6X6X6X6X6X6X6X2X1X,X-X-X-X,X:X`.g.6.7.7.7.>.o.] / ! K K ! / [ [ [ O.) + . 3 n ! o.3.f.T.!.!.!.^./.(.oX",
"8X6X8X6X<X;X;X;X;X' W 6X6X8X6X6X6X6X6X5X6X6X1X1X4X,X,X,X1X,X>X:X&X|.`.T.5.>.%...} } o.O.O.O.O.} < . + B o.;.f.T.E.!.!.^.^.!.!./.",
"9X8X8X2X;X>X;X=X`.m [.6X6X6X6X6X2X6X1X1X1X1X1X1X1X,X,X,X>X,X1X,X,X>X>XoX].^.T.g.5.4.4.4.>.*.O.-.u . . p 4.7.F.E.E.^./.!.^.^.G.!.",
"8X8X6X,X;X;X*X=X' o.8X6X6X6X6X2X6X5X1X6X5X,X1X1X,X,X,X,X,X,X1X>X1X1X,X,X-X*XoXoX]./.^.G.5.>.>.>.G + O > 1.!.R.E.^.^././.^.^.G.E.",
"6X8X1X;X;X*X=X!.N *X6X6X6X8X6X2X2X1X1X2X1X1X,X,X1X,X,X,X,X,X1X>X,X,X,X,X,X,X1X>X,X*XoX].E.g.g.4.O.> O O C `.E.).^./.]./.^.G.!.g.",
"8X2X;X;X*X*X+X! } 7X6X8X6X6X2X5X,X5X,X1X1X,X,X1X,X,X,X,X>X>X,X1X,X,X>X,X,X,X,X-X-X,X*XoX].E.E.G.f.t O $ 1 7.).(.].].]./.^.^.E.g.",
";X;X;X@X*X+XR.x $X8X6X6X7X5X2X2X5X1X1X1X1X,X1X,X,X,X,X,X,X1X,X>X,X>X,X,X,X-X,X,X,X-X-X+XoX^.^.E.W.C O $ + C {.`.].].].]./.^.!.G.",
";X;X+X+XoXoXE [ 6X6X6X8X6X2X2X2X,X1X1X1X,X,X1X,X,X,X1X-X-X1X,X,X,X>X>X1X-X>X,X-X>X>X-X+X]./.^.E.Q...* $ $ 6 W.|.].].].]././.G.E.",
";X;X*X+X[.D.j oX7X6X6X6X6X6X6X4X,X1X,X1X,X1X,X,X,X1X-X1X1X>X,X>X,X>X,X-X-X-X>X-X-X-X-X-XoX/./.E.!.7.2 O O   Z |.].oX].]././.!.G.",
"*X+XoXoX[.! [ 6X6X6X6X6X6X,X4X,X,X1X1X>X1X1X,X,X>X1X,X>X-X1X-X1X>X>X>X,X>X-X>X-X-X-X-X*XoX^./.E.R.F.y X X   < I.oX].].].].^.!.g.",
"+X+XoXoXg.g oX6X6X6X6X6X6X6X2X4X1X1X1X1X,X,X,X,X1X-X,X,X,X>X1X-X1X-X,X-X,X-X-X,X-X-X*X:XoX^./.^.G.F.S X       b oX].].].].^.!.!.",
"+XXX[.[.H H 6X6X5X6X6X2X<X6X,X4X,X1X,X1X>X1X,X-X>X1X,X,X>X1X-X1X1X>X1X-X-X>X-X,X-X*X*X*XoX]./.].E.g.$.=       : 5.[.[.].].].E.E.",
"|.[.{.F.t g.6X6X6X6X6X6X6X,X1X,X1X,X,X,X1X,X,X1X,X-X,X-X,X-X,X-X-X-X-X-X-X-X-X-X:X:X&XoXoX].oXoX`.g.5.0         c |.[.]././.^.E.",
"'.`.(.Q y -X6X6X1X6X6X1X5X1X1X,X,X1X,X1X-X1X1X-X,X-X>X,X-X,X,X-X-X-X,X-X-X-X-X:X*XoX&X&X|.].oX].].g.5.x         : 3.}.].].].^.^.",
"`./.T.t H 6X5X2X5X6X6X6X1X6X1X,X1X,X,X>X1X-X-X1X>X1X>X-X1X>X-X1X>X-X>X-X-X-X*X*X:X*X&X&XoX].].]./.g.4.! O         b ].]././.^.^."
};
