/* XPM */
static char *result[] = {
/* columns rows colors chars-per-pixel */
"64 64 212 2 ",
"   c #040406",
".  c #070608",
"X  c #080608",
"o  c #0B0B0C",
"O  c #080506",
"+  c #0C100E",
"@  c #10110F",
"#  c #0E0E10",
"$  c #141414",
"%  c #181615",
"&  c #1B1B1B",
"*  c #171818",
"=  c #100D0F",
"-  c #211E1D",
";  c #1E201D",
":  c #1F1E21",
">  c #201E20",
",  c #1E2223",
"<  c #232323",
"1  c #2B2A2B",
"2  c #282727",
"3  c #312D2C",
"4  c #33312E",
"5  c #3B362F",
"6  c #2F2E31",
"7  c #343333",
"8  c #3C3B3C",
"9  c #373638",
"0  c #2A3134",
"q  c #423D39",
"w  c #3D3E44",
"e  c #3F4248",
"r  c #444443",
"t  c #4C4C4B",
"y  c #484646",
"u  c #524B44",
"i  c #504E4C",
"p  c #57534D",
"a  c #494B51",
"s  c #525153",
"d  c #5B5B5C",
"f  c #575858",
"g  c #4D5155",
"h  c #625B55",
"j  c #69625B",
"k  c #736854",
"l  c #5D5E61",
"z  c #5C656A",
"x  c #646463",
"c  c #6D6A64",
"v  c #6E6C6B",
"b  c #696767",
"n  c #716E6B",
"m  c #756E65",
"M  c #76726C",
"N  c #7B756C",
"B  c #7A7365",
"V  c #747473",
"C  c #7C7974",
"Z  c #7D7C7A",
"A  c #777677",
"S  c #6D7174",
"D  c #817D7A",
"F  c #847E73",
"G  c #817A6D",
"H  c #7F807F",
"J  c #85827C",
"K  c #8C8579",
"L  c #968A77",
"P  c #9D8964",
"I  c #A29279",
"U  c #DBBC7E",
"Y  c #D6B77E",
"T  c #DEC17F",
"R  c #777D83",
"E  c #7E94A8",
"W  c #858583",
"Q  c #898581",
"!  c #8C8A85",
"~  c #8C8B8A",
"^  c #858A8B",
"/  c #918E8A",
"(  c #918D85",
")  c #95938D",
"_  c #97928A",
"`  c #959592",
"'  c #999693",
"]  c #9C9A95",
"[  c #9D9D9A",
"{  c #94999D",
"}  c #899094",
"|  c #A79B84",
" . c #A19F9B",
".. c #A09B93",
"X. c #A4A29D",
"o. c #A8A39D",
"O. c #BAA888",
"+. c #8999A6",
"@. c #99A4AB",
"#. c #95A6B2",
"$. c #A5A5A2",
"%. c #A9A6A2",
"&. c #ACAAA5",
"*. c #ADADAA",
"=. c #A7A8A7",
"-. c #B1AFAB",
";. c #B1ADA5",
":. c #AFB1AC",
">. c #B3B1AD",
",. c #BFBAAF",
"<. c #A6AEB6",
"1. c #AAB4BB",
"2. c #B5B5B2",
"3. c #B8B7B3",
"4. c #BABAB5",
"5. c #BCBDBA",
"6. c #B5B9BA",
"7. c #B1AFB0",
"8. c #CAB289",
"9. c #D7B881",
"0. c #DCBD85",
"q. c #DDBF89",
"w. c #D4B887",
"e. c #CBB899",
"r. c #D4BD97",
"t. c #C4AD85",
"y. c #E2BF85",
"u. c #E0BF89",
"i. c #E0BF94",
"p. c #CBBCA4",
"a. c #C9BEAA",
"s. c #C4B9A8",
"d. c #C1BEBA",
"f. c #C7BEB4",
"g. c #BFC0BC",
"h. c #DFC085",
"j. c #DFC08A",
"k. c #DDC394",
"l. c #DAC49C",
"z. c #D4C09B",
"x. c #E1C286",
"c. c #E3C48D",
"v. c #E9C68B",
"b. c #E6C88A",
"n. c #E9C98D",
"m. c #E4C592",
"M. c #E8C792",
"N. c #E6C992",
"B. c #EACB94",
"V. c #E6C798",
"C. c #E4CA9E",
"Z. c #EACC98",
"A. c #CDC1AA",
"S. c #DBC6A4",
"D. c #CAC1B3",
"F. c #C2C2BE",
"G. c #CAC6BC",
"H. c #D7CBB6",
"J. c #DED1BA",
"K. c #E3CCA5",
"L. c #E7D6B9",
"P. c #B6BCC0",
"I. c #ABB8C5",
"U. c #BCC2C5",
"Y. c #BBCED4",
"T. c #C4C4C2",
"R. c #C8C7C4",
"E. c #CACAC5",
"W. c #C6C7C8",
"Q. c #CDCDCA",
"!. c #C5C9C8",
"~. c #D1CDC9",
"^. c #CFD0CD",
"/. c #D2D2CE",
"(. c #DAD4CB",
"). c #CECED1",
"_. c #CCD2D6",
"`. c #D4D5D2",
"'. c #D8D7D4",
"]. c #D7D8D4",
"[. c #D9D9D6",
"{. c #D6D9DA",
"}. c #DCDDDB",
"|. c #D5D6D9",
" X c #E3D9C9",
".X c #E0DFDD",
"XX c #E4DED1",
"oX c #DFE0DD",
"OX c #E1E1DE",
"+X c #EAE5DA",
"@X c #EEE3CE",
"#X c #DCDEE0",
"$X c #D0D9E3",
"%X c #E0DFE2",
"&X c #DFE1E2",
"*X c #E4E4E3",
"=X c #E9E6E4",
"-X c #E6E8E7",
";X c #EAE9E6",
":X c #E4E6E9",
">X c #E7E9E9",
",X c #EBECEC",
"<X c #F0EFED",
"1X c #EEF0EF",
"2X c #F1F0EE",
"3X c #EDEEF1",
"4X c #E6EDF0",
"5X c #EFF2F4",
"6X c #F3F3F3",
"7X c #F4F5F9",
"8X c #FAFAFC",
"9X c #F8F8F9",
/* pixels */
"x.U U U 0.0.0.q.q.x.c.c.c.u.c.c.m.B.9.0.q.q.B.B.m.N.c.B.q.m.q.k.c.j.h.c.h.v.v.c.M.m.m.Z.V.i.i.V.i.c.q.q.c.c.N.N.h.c.b.c.h.U h.x.",
"x.T U U y.x.y.y.0.q.u.u.y.u.q.y.q.m.0.q.m.m.B.k.r.r.p.A.A.D.f.D.D.D.D.A.p.z.k.j.c.c.M.V.V.i.i.M.M.M.m.u.q.j.c.q.c.c.j.c.h.h.x.x.",
"b.x.x.x.c.b.c.y.y.c.c.c.x.c.v.v.0.c.q.m.l.p.s.5.T.!.!.^.^._.`.|.{.{.{.{.{.`./.H.r.q.m.V.M.V.V.M.c.q.u.c.c.c.j.0.c.c.h.h.h.x.h.x.",
"b.n.n.b.x.n.c.c.0.u.u.u.c.c.v.c.c.N.k.p.f.T.Q.`.].{.}.#X*X&X*X-X*X:X>X>X>X,X:X*X#XJ.V.M.V.Z.V.i.c.u.c.c.c.v.c.c.c.h.c.b.b.x.x.h.",
"T v.n.v.v.v.m.N.q.c.c.q.j.c.v.c.h.l.F.R.Q.`.}.}.oX&X*X*X:X-X>X>X,X,X4X5X5X,X5X5X5X4XXXr.M.m.m.m.m.M.c.c.c.q.c.y.j.c.b.N.b.c.h.h.",
"U x.b.v.j.v.v.N.M.B.B.c.v.c.b.h.z.F.E./.}.oXoXoXoX*X*X:X-X>X>X,X,X1X1X5X5X5X5X5X5X3X3X Xm.m.c.q.m.c.c.x.u.c.c.c.0.j.b.N.N.h.h.h.",
"U U x.b.c.c.c.v.c.M.c.q.j.x.x.j.G.Q./.oXoX}.}.}.}.oX&X*X>X>X>X,X5X3X5X5X5X5X5X5X5X7X5X3XJ.u.q.c.u.q.q.q.c.u.m.n.0.U 0.b.j.h.9.h.",
"x.U x.x.c.c.0.j.u.c.c.0.U c.j.A.Q.Q.`.OX}.`.`.].{.}.&X&X*X>X4X3X,X5X5X5X5X5X5X5X5X5X7X3X=Xk.u.u.c.c.u.q.c.c.b.c.c.9.9.c.b.c.j.b.",
"c.h.j.c.N.B.N.N.m.c.0.0.0.0.q.R.Q.).[.*X'.Q.Q.^.`.|.#X#X:X:X>X4X,X3X5X5X5X7X5X5X7X7X5X7X3XL.v.c.c.b.b.0.9.c.c.0.h.c.b.c.N.c.c.N.",
"c.c.c.b.B.B.N.m.B.v.c.u.y.0.r.Q.~./..X[.Q.R.!.!.).|.{.#X:X:X>X4X3X3X5X3X5X7X5X7X7X5X7X5X3X.Xi.c.c.c.b.q.x.c.c.c.j.c.c.c.c.j.q.c.",
"h.c.c.m.B.B.Z.N.B.m.c.c.j.0.D.).)..X*XQ.5.5.5.T.W.).|.#X%X:X4X4X4X3X3X7X8X8X8X7X5X7X5X5X5X3XS.0.h.q.x.j.c.c.n.c.b.c.c.j.c.c.c.0.",
"c.j.c.c.N.B.V.N.m.c.q.c.h.j.G.Q.F.%X<XR.2.2.7.6.U.).`.{.#X&X&X4X4X3X5X8X8X8X8X8X7X5X5X7X5X3XJ.q.b.x.x.c.c.x.m.b.N.b.c.c.c.c.c.c.",
"c.c.N.N.N.m.j.j.j.j.h.j.j.k.R.6.R } :XP.:.=.=.7.P.W.).|.{.&X&X4X>X4X5X8X8X7X8X8X7X5X7X5X5X3XXXq.N.b.c.c.c.b.c.N.c.c.c.c.c.c.c.q.",
"0.j.m.b.N.N.c.j.N.j.j.0.c.l.^.6.<.1.|.5.*.=.=.*.6.T.).).{.oX&X:X:X>X3X7X7X7X8X8X7X5X5X5X5X5X:XV.c.x.x.x.c.x.c.b.c.c.m.c.c.q.0.0.",
"0.j.c.m.N.V.N.N.c.j.h.j.c.S.!.P.I.W.^.6.=.@.@.&.7.5.W.)._.[.&X&X:X:X4X7X8X7X8X8X7X7X7X5X4X$X=.t.h.h.U Y y.h.x.0.c.c.c.c.q.0.q.q.",
"c.N.N.j.q.m.N.c.j.h.0.j.b.a.5.S A { P.7.$. .$.*.<.6.P.W._.].{.{.#X|.`.).).).W.P.@.~ S l y 1 * P x.x.0.h.q.x.q.0.q.c.c.c.q.0.c.m.",
"Z.c.j.0.c.N.n.m.c.c.y.q.0.a./ 2 w s l a a s f l d l l d f g t r w 7 2 2 6 8 7 < $ o + $ , 9 V z.B.b.N.j.9.q.c.B.c.c.q.u.m.c.c.N.",
"b.j.c.h.c.b.v.c.y.x.q.c.v.~.Q 9 b b 2 = o o o o               o = = % < 9 t a g f l l x A 2.*X@Xc.c.c.c.j.c.q.q.c.b.c.c.c.c.c.c.",
"c.b.b.b.h.q.0.9.c.c.y.x.l.(.;.q p n d y 9 5 9 5 4 0 4 4 4 7 8 q t A ' 7.T.W.E.A 8 2 ; * 8 {.=X+XV.c.c.0.q.c.0.c.c.N.c.c.c.c.c.m.",
"c.c.c.c.x.y.q.y.N.N.y.0.H./.4.h p ' %.[ n y > > ; ; ; * $ + + ; A ~.*X,X6X6X6X6.7 o + + 0 Q.+X+XC.j.j.0.c.m.c.N.c.c.c.c.m.c.c.N.",
"v.0.y.x.c.v.N.N.v.m.j.q.;.=.>.C u J o.;.Q i = * 2 * + +   # r ] /..X*X;X1X6X6X6X!.f $ + < 3.=X+Xk.0.c.c.c.N.c.c.c.c.c.q.c.c.c.N.",
"c.b.q.0.c.v.B.v.y.x.y.w.N l ] / j B _  .' Q 2 % - @ . + w W 5.Q./.`.~.[.,X6X6X6X6X>X@.f y F.<XXXk.9.j.q.j.c.c.m.c.c.u.q.c.q.q.N.",
"b.c.y.q.v.c.b.q.0.0.c.w.i 0 Z ' m m V d ] *.W < @ - t ~ 2.F.F.5.-.%.-.R.=X6X6X1X,X,X6X1X%X3X<X Xm.j.c.9.9.q.c.N.q.j.c.c.c.q.q.v.",
"9.0.q.y.c.b.v.q.c.v.c.q.N w Z ! M k j 9 V &.T.[ D  .2.d.2.>.$.]  .%.*.F.*X6X6X6X6X1X1X1X6X6X3XJ.N.c.m.c.c.v.q.c.9.9.0.c.c.q.0.c.",
"v.c.c.q.y.c.c.y.h.y.v.N.A.=.%.J n n d e r } &.3.5.5.2.;.%.&.&.$.X.$.*.g.oX9X6X2X6X6X5X2X2X5X=Xr.B.N.c.u.0.c.c.c.c.0.9.q.c.c.c.m.",
"c.v.x.y.y.c.c.c.v.0.b.N.k.*. .J c K l a 7 d [  .&.-.7.5.T.T.2.&.$.%.:.5.}.6X6X5X2X6X6X6X6X6X6XXXK.c.c.c.c.N.N.N.B.c.q.c.c.c.q.u.",
"0.x.b.c.c.y.c.c.0.q.c.c.j.D.o.J C =.f w 8 ^ X.) %.F.).`.Q.R.4.-.&.&.;.g.`..X,X6X6X2X6X6X6X7X6X,X+XK.v.c.c.c.c.q.c.c.u.c.v.N.c.c.",
"U c.B.B.c.c.x.c.0.q.y.v.N.(.o.J *.5.R e g 3.:.g.Q.`.`.`.~.R.4.>.-.-.2.*.R E ^ 6.3X6X6X6X6X6X6X*X;X=XK.c.c.u.q.0.q.q.q.c.c.N.m.c.",
"9.c.v.N.c.c.x.y.y.y.q.j.H.] m &.E.F.>.W A *.%.3.R./.`./.^.E.d.2.3.@.S l : z S g { -X6X6X6X6X2X*X_._. Xy.j.c.c.c.q.m.c.c.c.v.c.9.",
"Y y.c.v.v.x.x.0.0.q.k.A._ Z { U.].`.5.:.*.&.[ *.F.~././.^.E.P.5.=.z 0 f A 5._.P.{ { :X6X6X6X<X,X$XI. Xu.u.c.c.c.0.y.c.j.c.N.m.c.",
"q.y.0.y.c.x.c.c.x.j.a._ / +.#.<.1.T.g.2.*.$.] [ >.R.~././.^.T.^ a l ^ 5.}.,X8X8X2X].5.*X6X6X3X2X_.I.R.u.c.c.u.q.Y 9.q.c.N.B.B.B.",
"y.0.0.0.c.N.B.n.x.S...] g.1.1.#.#.#.1.5.2.%.X.] X.2.E./.`.2.R f ^ :.3.R.].*X6X7X6X<X<X<X6X2X3X5XY.I.[.V.c.m.N.m.c.c.c.N.N.m.m.c.",
"b.h.9.b.B.N.c.n.Z.p.K 3.oXoX{.U.@.+.+.+.1.P.>.%.$.%.d.`.}.-.6.F.3.:.>.5./.OX6X9X6X6X6X6X6X6X2X<X<X|.=XK.m.M.N.Z.V.m.m.m.j.q.V.M.",
"h.x.h.y.c.b.B.B.M.| F G.oX2X[.E.U.<.+.+.E <.!.F.T.R.~.'.}..X.X`.g.:.*.3.Q.OX,X6X6X<X<X6X6X6X2X<X2X6X=XK.j.j.q.i.M.m.m.m.m.q.j.m.",
"h.b.b.x.0.c.c.c.N.I B 4.Q.^.F.,.2.4.6.#.+.I.}..X~.d.3.R.`.|..X[.F.>.:.>.R.[.,X9X6X<X<X6X6X6X2X2X6X2X<XC.j.c.i.q.m.m.m.m.q.q.m.m.",
"j.b.N.b.x.h.c.c.M.O.j X.g.4.2.>.*.>.4.F.T.`.[.}./.3.*.3.E.'.[.[.^.4.:.:.5.`.=X6X6X6X<X<X2X2X<X2X6X6X6XK.c.m.m.u.q.q.k.c.j.c.m.k.",
"h.x.b.n.n.N.N.N.m.j.L N ..-.;.&.%.&.2.Q.~.E.`.OX*X).2.;.4.Q.].[.'.R.>.&.-.F.).[.%X3X<X6X6X<X<X6X6X6X6XL.y.v.c.c.Z.j.b.j.c.c.j.j.",
"x.c.x.x.c.v.n.v.c.c.q.I N D X.*.&.*./.Q.4.5.^.}.*X=X/.-.*.T.).`.[.).2.$.' n p d A d.6X6X<X<X6X6X9X6X6XL.v.B.m.c.Z.N.j.N.j.m.N.j.",
"j.N.b.9.q.c.c.0.m.c.q.q.8.I K ..&.f.Q.5.-.2.T.[.*X;X=XQ.=.:.R.Q.`.`.F.2.W 2 - < y D =X6X<X<X6X6X6X6X6XL.v.v.M.M.j.j.N.N.c.j.N.c.",
"U b.c.h.9.m.c.9.B.M.q.q.c.u.q.w.8.f.F.3.&.%.3.Q..X*X;X-X5.[ *.5.E.).E.E.d $ o o % p E.6X5X=X3X7X6X6X<XL.M.u.c.c.j.j.j.j.h.h.h.h.",
"h.j.j.c.j.B.h.9.u.m.c.u.u.u.M.N.N.r.D.3.X.X.*.g.[.*X=X,X*X>.[ &.d.T.`.[ : X . . * s ' W.} s n T.<X<X<X Xk.S.K.V.j.j.h.j.j.h.h.h.",
"0.h.h.b.c.B.c.h.m.m.c.c.m.v.m.v.N.j.A.5.%.] $.2.E.'.=X,X4.C M ~ %.5.6.r o X . . # e 6 > * * 3 j d.<X<X=X=X=X;X;X+X@XL.K.j.h.h.h.",
"j.w.j.j.N.Z.N.w.u.w.w.w.q.k.c.q.t.I K >.=./ ) X.2.Q.*X-.1 o $ 6 d n 8 o o X   X > a % % w 1 3 y  .;XXX(.=X;X;X2X1X1X,X;X+XL.k.h.",
"h.j.c.j.k.w.O._ L L F G B k k B Z C Z [ >.! Z J ) -.[.` % $ < * 9 r - * > * $ > l ~ 2 > s q m Q T.%X;.;.;X>X;X2X1X1X1X,X2X2X;X X",
"c.c.V.A.,.>.&.] ( F G B h u q u Q ' / D ` ' V n C ) Q.-.- 2 s 2 v ~ t * < 6 9 t D &.b y D 4.'.~.`.XXD c *X,X,X;X;X2X2X2X2X2X2X2X",
"k.S.~.~.^.G.g.;.] L G j h u q p / C c x c / D c n C %.'.p 2 y V T.>.1 . # : 1 h ~ &.d.E..X%X'.'.;X6X-.5 G.;X,X;X2X2X2X2X2X2X2X6X",
"J.`.].].`.Q.F.3.o._ G j p u 4 5 h C Q J n c J Q J Z ! d./.X.E.,X,X~ X .       & h ] 7.d.R.~..X<X9X6X>Xt C ,X;X2X<X<X2X2X2X6X6X2X",
"].oXoX]./.Q.R.g.>. .D k p u - & D %._ Q D M n D ( ) ' ..3./.}.}.=.1 X .   X & 6 t v / &.R.=X6X9X6X7X7XX.5 (.<X+X<X;X2X2X2X2X6X6X",
"oXoX]./.^.Y.G.g.g.&.) H h q @ % _ :._ ( ! J Z C C J ( ` [ $.X.C 9 > : 7 d ^ =.:.:.4.E.oX,X6X6X6X6X6X9X=Xf Q ;X;X,X<X<X<X6X9X6X6X",
"oX`./.Q.^.^.G.E.g.g.$.K B 1 O @ ( &.] ] ' ( ! K J ! ( ' X.:.5.5.5.5.P.|.-X,X>X*X-X1X1X1X6X9X6X6X9X6X6X7Xd.s `.;X;X;X;X<X9X8X9X9X",
"/.^.Q.^.^.J.^.E.g.g.:. .N $ O < ] o.X.o.%.X.] [ X.%.>.5.R.`.oXoX*X>X,X,X>X,X1X1X1X1X6X6X6X6X6X6X6X6X6X6X6XW ) ;X;X;X,X<X2X9X9X9X",
"Q.E.E.~.^.^.^.G.G.g.g.2.p O O u :.o.&.:.4.3.3.4.5.R.Q.{.oX>X>X>X,X,X,X>X,X,X>X1X1X1X1X5X2X2X6X6X6X6X6X9X7X}.n ).;X;X=X,X2X9X9X8X",
"G.E.E.^.^./.^.^.E.R.E.>.< o o D >.>.2.g.G.Q.^.].}.OX=X-X>X,X,X1X,X5X,X,X1X,X,X,X1X,X1X1X6X1X2X2X6X6X6X6X6X9X .` =X=X=X=X;X6X9X9X",
"F.E.^.^./.]./.^.Q.Q.`.V o o 2 o.4.g.g.G.].oX-X,X>X,X,X,X,X,X1X,X,X,X,X,X>X,X,X1X1X1X,X1X5X2X5X1X<X6X6X6X6X9X*XV E.*X-X-X;X<X6X9X",
"F.E.^././.]./.]./.`.5.1 # . r g.g.E.G.oXoX*X,X-X,X,X,X,X,X,X,X,X>X,X>X,X,X,X,X1X1X,X,X1X,X1X,X2X<X<X6X6X6X6X9X .! *X=X=X;X;X<X6X",
"E.E.Q.^.].].].].`.].A o # o V E.E.^.^.oXoX-X,X>X>X,X-X,X,X,X,X>X,X,X,X,X>X,X,X,X,X1X,X1X5X,X1X5X6X<X6X7X9X6X6X.Xx T.OX*X=X=X;X<X",
"R.E././.[.'.[.'.}.T.6 # # * [ Q.E.^././.OX-X-X>X-X,X-X,X1X>X-X,X,X,X,X>X1X>X1X,X1X,X1X,X1X1X,X1X1X6X5X6X9X6X6X9X' W oXOX*X*X=X;X",
"F.E././.[.[.[.|.}.A   # o 1 5.E.Q././.oX-X-X-X-X>X-X>X-X-X-X1X,X1X>X,X>X>X1X>X,X>X1X,X1X1X,X1X1X1X1X2X1X9X6X6X6X}.b F.oXOX*X=X=X",
"R.Q.~.`.'.[.[..XP.<   X . i T.R.E.`.^.oXOX-X-X-X-X>X,X-X-X>X1X-X>X,X>X1X1X-X,X,X1X,X,X1X,X,X1X,X1X2X1X6X6X6X6X6X7X] W }.}.*X*X=X",
"R.Q./.`.'.[.[..Xn       . Z F.F.^.^.^.oX-X*X-X-X,X-X-X-X-X,X-X-X,X,X1X>X-X1X>X,X>X,X,X1X1X1X1X,X1X1X1X6X1X6X6X6X6X}.d T.}.}.}.OX",
"E.Q./.].].[.[.6.&       & %.g.E.]./.].{.&X-X*X-X-X>X-X,X-X>X,X1X,X>X,X-X1X,X,X>X,X,X1X>X,X1X,X1X1X1X1X6X1X6X6X6X6X9XZ J [.}.}.OX",
"Q.^./.`.].[.{.b         8 4.g./.oX].oXoXoX&X*X-X-X-X-X-X,X-X-X>X-X,X>X1X-X,X-X1X,X>X>X1X,X,X1X,X,X1X,X1X1X6X6X6X5X7X5.y F.'.[.[.",
"E./.`.`.].[.2.&     .   x 3.g.].[.oX[.oX&X*XoX:X:X-X-X>X-X-X-X>X1X-X,X>X-X,X>X1X,X,X,X>X,X,X,X1X,X1X6X6X1X6X6X2X6X6X>Xt Q /.`.[.",
"^./.`.`.].|.v       . + W 3.g.].].[.].oX&X&X*X*X*X-X-X-X,X-X>X-X,X-X-X-X1X-X,X-X,X>X,X,X,X1X,X1X,X,X5X1X6X6X6X5X6X1X6XD y G.).'."
};
