/* XPM */
static char *d2FsbC4_[] = {
/* columns rows colors chars-per-pixel */
"64 64 214 2 ",
"   c #1E0202",
".  c #1D030E",
"X  c #260202",
"o  c #2B0102",
"O  c #2E0807",
"+  c #24020A",
"@  c #2B030A",
"#  c #330102",
"$  c #3C0202",
"%  c #350803",
"&  c #330309",
"*  c #3C0309",
"=  c #34080A",
"-  c #3B0909",
";  c #3D0B04",
":  c #220114",
">  c #430302",
",  c #4B0301",
"<  c #430902",
"1  c #4C0902",
"2  c #43040A",
"3  c #4B050A",
"4  c #450908",
"5  c #4C0A0B",
"6  c #530501",
"7  c #5B0502",
"8  c #540902",
"9  c #5C0B02",
"0  c #53060C",
"q  c #5B0509",
"w  c #540B0A",
"e  c #5C0B09",
"r  c #4A110A",
"t  c #541201",
"y  c #5D1101",
"u  c #57140B",
"i  c #5D120B",
"p  c #5C0A10",
"a  c #630602",
"s  c #6A0702",
"d  c #630B02",
"f  c #6B0D02",
"g  c #60070B",
"h  c #6C0508",
"j  c #630B0A",
"k  c #6B0D0B",
"l  c #760600",
"z  c #730D02",
"x  c #7C0E02",
"c  c #730D09",
"v  c #641103",
"b  c #6C1203",
"n  c #651902",
"m  c #6E1900",
"M  c #63130B",
"N  c #6C130A",
"B  c #671B0B",
"V  c #741303",
"C  c #7B1403",
"Z  c #751A06",
"A  c #7C1903",
"S  c #74130A",
"D  c #7C150A",
"F  c #74190A",
"G  c #7C1A0A",
"H  c #640C12",
"J  c #770F10",
"K  c #631312",
"L  c #6A1410",
"P  c #7E1712",
"I  c #771812",
"U  c #771714",
"Y  c #7C2106",
"T  c #7C200D",
"R  c #7F2213",
"E  c #800600",
"W  c #830E02",
"Q  c #890F02",
"!  c #830C08",
"~  c #831503",
"^  c #8B1603",
"/  c #841A04",
"(  c #8B1C04",
")  c #83150A",
"_  c #8A160B",
"`  c #841B0B",
"'  c #8C1C0A",
"]  c #931602",
"[  c #931D04",
"{  c #9A1D05",
"}  c #93160A",
"|  c #931D0A",
" . c #9B1D0B",
".. c #851512",
"X. c #8B1012",
"o. c #8C1D10",
"O. c #8F1F1B",
"+. c #851A12",
"@. c #931D11",
"#. c #A21A03",
"$. c #A31E0C",
"%. c #842105",
"&. c #8D2104",
"*. c #84230B",
"=. c #8D220C",
"-. c #842B0D",
";. c #952205",
":. c #9B2304",
">. c #972A03",
",. c #9E2906",
"<. c #94220B",
"1. c #9C240B",
"2. c #93290D",
"3. c #9D2A0C",
"4. c #99310D",
"5. c #95330E",
"6. c #842312",
"7. c #8E2412",
"8. c #942311",
"9. c #9D2411",
"0. c #962C13",
"q. c #9C2B13",
"w. c #9F3112",
"e. c #A32305",
"r. c #AA2506",
"t. c #A32906",
"y. c #AB2C06",
"u. c #A3250B",
"i. c #AA250A",
"p. c #A42A0C",
"a. c #AB2C0C",
"s. c #B02707",
"d. c #B02C06",
"f. c #B0240B",
"g. c #B22C0C",
"h. c #A63400",
"j. c #AD3503",
"k. c #A7310C",
"l. c #AC320C",
"z. c #AF3A0C",
"x. c #B33207",
"c. c #B3340D",
"v. c #BA330C",
"b. c #B73B0C",
"n. c #BB3A0F",
"m. c #A22512",
"M. c #A42B13",
"N. c #AB2C12",
"B. c #A92518",
"V. c #A52E1B",
"C. c #B32D13",
"Z. c #B92F15",
"A. c #B02F19",
"S. c #A33313",
"D. c #AD3312",
"F. c #AC3A14",
"G. c #AC331A",
"H. c #A93C1D",
"J. c #B03212",
"K. c #B43513",
"L. c #BA3514",
"P. c #B43B14",
"I. c #BB3B15",
"U. c #B23419",
"Y. c #BC3619",
"T. c #B53B1A",
"R. c #BB3B1A",
"E. c #C33A0D",
"W. c #C33B13",
"Q. c #C33E19",
"!. c #C33714",
"~. c #B64209",
"^. c #BC420D",
"/. c #AB4214",
"(. c #B34315",
"). c #BB4213",
"_. c #BE4A16",
"`. c #B0431C",
"'. c #BD431B",
"]. c #BC4B1B",
"[. c #BD4220",
"{. c #BA4E20",
"}. c #BE4E29",
"|. c #C34214",
" X c #CC4315",
".X c #C04B16",
"XX c #CB4C15",
"oX c #C3441A",
"OX c #CD431A",
"+X c #C44A1D",
"@X c #CC4C1D",
"#X c #C6551E",
"$X c #CF511E",
"%X c #CA5B1E",
"&X c #C24422",
"*X c #CB4423",
"=X c #C54B24",
"-X c #CA4D23",
";X c #C44E28",
":X c #C2492E",
">X c #D44F24",
",X c #C45225",
"<X c #CB5324",
"1X c #CC5C25",
"2X c #CA5529",
"3X c #CB5829",
"4X c #D15424",
"5X c #DA5624",
"6X c #D15328",
"7X c #D35B27",
"8X c #CA5834",
"9X c #D96625",
"0X c #D3692B",
"qX c #D27633",
/* pixels */
"e d <.1.{ G 6 > , l ) 1 # e V d 6 6 8 b *.V , & # 8 C 3.k.t.m.X.M e d %.y.a.' d $ o o $ 6 f d 6 - o , c A C a 1 q V C f , 6 S ( ",
"i d [ K.<X,X-.6 + X 1 B N l C <.K.0.*.` } C 7 r K 9 s S G b d v V e * > f q.q./ 8 # X & 6 N v t e x 1.=.i & X o 6 A t.M.F < # $ ",
"9 f F N 5.7X6XV.i & X # 6 N 8.R.L.6.$ X Z ,X;X4.A v f ) a.y.A M f G 6.N 6 6 V (  .` e $ > d | Y.h.( M u Z &.-.6.w 1 8 G M.a./ t ",
"F v 1 X $ / ;.V m d w $ 4 k <.(.p.' D q.+XP./ 6 X X @ < ) u.( f 9 b ;.l.L.>.V 6 $ 1 M L k V ;.oXT.V $ 1 k.5X`.F Z Z S f f ) 8.m.",
": X o @ 4 N F i 4 ' i.%.n N V V ( e.y.y.<.Z b k ) =.;.;.] | O.P t 1 6 S M.oXR.9.c , X   o > l G.v.<.` ( l.b.<.v 6 , 3 8 b / ( ( ",
"4 d A ) C { a.M.8.9.' d 9 Y ;.:.p./ d 1 4 1 f C 1.=.Z Z b A ,.e._ ~ z ` H.,X].h.7.V 6 4 5 w v *.e > 3 F S.I.i.^ g 8 < % o $ d ( ",
"| C f H j a k L B b ` G.L.g.=.U 3 2 3 g ) { | / C f 7 a b A Z d * O o 1 C ^ b 6 $ 6 P 1.,.>./ V N ` k.L.K.q.` b 2 1 d A *.F M H ",
"( 9 X o 8 b V v j ) y.j.&.S j 9 b ) | ,.;.&.` D v e j 6 8 < X + o X   + $ H 8.D.p.~ G 7.9.{ _ ) [ r.I.K.u.( b b S V D | m.p.;.( ",
"9.V 1 X o 2 d V z A A C A ( 9.i.e.K.a.:.:.{ ~ z 9 8 $ o + + o X # e S ~ ' ' / T V 2.p.<.N e v D >.7.' ~ ~ / 1.i.u.1.<.' C 8 6 q ",
";.M.) , O X $ M 7 , 3 j C p.'./.M.S./.{.[.K.3./ C '  .) 9 8 6 a D G / z 9 , 6 7 V N 6 , 6 c A / v z W ' k.).).G.!.P.p.;.D b v V ",
"g.;.;.G , X @ & w > * 2 , c =.( z ( c.Q.|.K.,.' ~ ( p.D.v.c.a.,.#.{ ;.=.c 6 > , 9 M B V A A 9 2 N C ,.&X[.S.1.l.=X=X(.1.! k w < ",
"$.;.V d N 6 # X + X X o , S S.c.V.6.V ^ C.!.M./ I d d V { t.M.q.` C S *.1.] f < o o # > 9 a 6 0 q , b ( ' x ^ K.Y.oX^.j.u.' c 6 ",
"2._ z 8 1 8 w $ $ $ $ 9 ^ e.p.4.d , 6 M V ~ &.( l 9 q 9 a a a q F D c , $ 5 I | D 7 # + @ & X X   o > i 7.b.y.^ l ( D.].'.y.| o.",
"| V 9 0 $ # > 6 7 v v d N 7 6 > 8 f ~ D 9 < 6 k A v 6 , 1 w 1 # # 6 C ~ d , 6 h <.<.A 6 > & & & X # , V p.T.0.f ; e c @.U.R.g.:.",
"z > o * * o # , e L e < X   o > s ` =.A N q > 3 9 S ) j > # # $ $ X o d | e.:.0.;.t.u.' v 1 , 6 8 9 V ^ ~ 7 , 1 8 k x z A :.a.d.",
"$ # @   X > 9 8 9 6 6 , , 9 A ) / d , 4 6 9 f V  .M.D.3.G q $ O < 1 > o - K 3.E.-XK.:.A f , $ & 4 j c d > o X & , C <.&.b d k 6.",
"O X X $ e D ~ A C C D / :.x.u.D 4 # o & $ , d G 3.T.Q.|.E.a.) d k C G b 6 7 / ,.N.p./ f e 4 o X o 6 k 9 8 6 8 1 f ;.,.<.9.~ k 7 ",
"2 < 1 a [ N.u.N.a.2.7.1.u.` w # X X +   + $ e z 1.<./ ( t.C. .C 9 9 d C o.V.K.v. .x 6 $ & X o & , f o.| ^ _ | | M.l.g.( d b Z f ",
"Z l ~ M.'.Q.a.M.S 9 d / [ x f v ' b 9 8 6 a V C E f 0 1 d ) G v % # # 6 D u.K.n.| z , & X X # $ v ` 3.a.g.L.N.' b C ( b $ # $ 4 ",
"P.k.T.R.a.A 8 # X y M.:X}.(.P.K.3.( / / ;.D.K.t.f 8 * & 8 ` ` f $ o # 1 d ( u.K.;.f , # X X $ 1 f 3.oX|.D.8.d # * ) K.0., o @ & ",
" Xn.:.f ; X # 8 M.+X9X%Xl.| f $ $ 6 S 1.a.K.a.e.%.C f d V :.:.^ c f d b S x ' 1. .G 8 % O # 6 S p.'.W.i.z 4 X X T [.5X4XT.V $ X ",
"D.A 5 @ # a >.].6X'.0.m < X @ & 2 j | M.6.d d k D _ B.D.j.L.K.m.=.V a 7 6 , 6 8 ) ` A d d N ' a.|.D.( a &   $ z ~.%X<X'.F.T.S.n ",
"N , 3 S N.<X2XF.G 6 # X o & 8 V z [ r.] d $ o O # 7 ' D.oX*XR.a./ d , & o o X X , 7 x Q [ D.+X|.b.( 8 o X < -.&X8X].:.a 6 a ! @.",
"` ;.b.XX@XT.D , o # $ 4 b 1.D.M.u.1.1.<.` d , $ = 6 C ,.P.oXI.z.e.z 4 o o # # X X o q S &.(.<XI.i.v & 5 x a.$X4Xt.l 2 .   X o & ",
"K.I.R.D.( d 6 7 9 V &.a.L.Y.A.e.o.) / ' =.( ~ / ^ <.k.|.0XqX1XOXF.<.V 8 # X X X # 1 c ;./.#X.Xs.6.z ~ p.|.$X+Xu.e > # $ 1 > # o ",
"a.d.t.:._ D D D ` ' t.b.v.:.V t d f ~ :.g.N.3.( D z ^ U.6X1X(.p./ C z c b j v 9 k / u.I.Q.K.u.,.:.p.K.Y.oX`.<.z d 9 v V ' ' V t ",
"A.1.C 9 9 9 d d ! | N.M./ 9 $ # $ 8 V ,.K.3.V 9 > > , a &.p.[ f 7 , $ , a _ M.l.N.N.1._ ! ! ( ,.p.:. .a.r.t.3.` D D V C ] p.K.N.",
"D 7 > $ * > 6 f V =.' z 7 8 1 > 3 e V ( =.v $ X X O @ X 1 G _ f , * = & 6 D g. XL.9.f > < 1 e N x ) :.c.L.t.x f 9 6 7 j z [ c.!.",
"8 > & & , 7 x } ;.( C ~ _ _ D z z ` / x z 9 $ + o # X X X 6 k c n 9 7 f S / / ( :.[ f < # X > j [ K.P.a.:.C , * $ > 3 K f C ,.K.",
"6 , > 1 d ' u.p.' &.;.3.9._ A S A ` V d 9 6 $ o # o o o + X $ 1 l | y.y.( f 7 e f ( =.k 6 6 A P.|.I.c.u.~ j , & $ $ , d A &.<.| ",
"f d f V &.,.;./ ` 9.M.| b 9 6 6 , , $ 4 * $ o o X X o X X X # < ) M.oX&XS.Z f c +.0.k.:.( 9.K.W.'.R.t.{ @.D 6 , * , d ^ y.N.2.A ",
") ` =.| #.{ } ` g.a.&.V f d 9 , $ & # X X o o X o X o & > > 6 j A 3.v.'.P.a.y.W.OXW.b.t.[ | <.1.y.K.oXP.1.~ V 9 9 d V ' 3.$.] ~ ",
"x <.p.c.P.y.a.L.#X'.t.| ) ) A d w 1 < $ # o X X + X o $ 6 N C / =.=._ } ) V C M.+XT.%.9 , y N A ( F.L.r.:.( ) ) Z / ;.<.o.) ) ( ",
"[ 1.l.'.$XoXL.G.'.-XoXP.p.{ } C c a 6 8 , > $ # o # o # , d ' N.g.u.( f 8 < , f $.( 9 > 2 3 7 b :.1.[ ~ G D V A { 1.:.#.e.N.C.a.",
"z | v.oXL.,.^ G :.L.+X.X_.I.a.{ ^ x f f k a 6 $ $ # # # $ 6 C 9.a.e.^ z q > $ , f Z d $ o * 9 '  ./ k d j f C <.C.K.R.P.x.v.n.oX",
"w V t.i.' N f / F.'.+X#X#X.XP.t.:./ S S C C V 9 6 > $ - $ , a F T Z z z d 1 # * 1 b z 7 % o 8 ' ( b 8 , 6 f ~ <.t.I.<X-XI.l.(.2X",
"w f ( / V N ' a.'.c.I.1X2XI.L.k.:.&.F A [ u.4.<.S f 9 7 7 6 d f D C d 9 8 6 6 6 9 k C D j 7 d C F d > > , f C A | g. XoX,.~ ~ 1.",
"a z =.3.<.;.{ ,.:.{ d.I.I.I.L.t.1.| _ ~ [ D.W.L.p.>.[ ( ~ C V V ] { ' N 7 q a a e c ' | ^ A ) D c f 7 7 7 7 9 9 f &.y.t.` k D ' ",
"V &.k.&XoXl.&.z / 9.a.c.n.!.L.t.;.| ^ D A 2.K.L.c.I.W.K.a.p.1.( &.,.p.<.C a 6 < 1 , d F C b d 9 a j j e 3 < > > > y / ( C f V ( ",
"' M.oX@Xl.~ j q a ` 3.).1X|.a.1.<.( ~ V d b ( i.i.P.|.).).R.J.1.o.{ r.c.t.^ d 4 > & o $ 6 6 > & $ ; $ # X o X o * 6 V | 1.] [ ,.",
"r.L.K.e.W 9 1 4 8 7 D p.'.|.P.a.' ^ ~ S d 9 f ..{ 1.u.a.l.S.3.| / C ' 9.r.u.<.f 6 > & o X o X X o # o o X o o o $ , f ' t.I.I.p.",
",.&.S f e < $ , 8 7 s ^ u.D.a. .' ~ z V k a a d ` / ~ ^ | M.1.^ x C ~ ~ C ' 9.m.V d > & & o o o X X X X o o o o $ 0 V ( a.<X=Xp.",
"b 6 6 7 e , > , d f S x / <.1.9.` Z f d d a 7 8 f b d f V ` | [ N f f f f f C <.;.( f 6 $ & # # o o X X X X X X $ 9 C [ l.'.T.[ ",
"- > , a h j 7 q f V G C z C ^ | ' C d 9 6 6 d d a 7 6 q q 7 V ' %.f 7 g a 7 6 9 } | ] V 6 4 $ $ o o # & o # o O 1 9 C e.a.p.&.C ",
"# < 1 9 V ~ V f z z d 9 7 d b C ~ x f 7 1 1 6 h f a 6 , 1 > 6 v ^ ` k , > > * > 9 D | [ ~ b d 7 6 6 , , , 4 $ $ 8 f ` <.| A k d ",
"> 8 b / 3.u.( V 9 6 , < 4 6 9 v V D c j , $ > , f 9 6 4 $ $ $ $ a A ( z 6 * # $ $ 6 C :.t.{ ' _ D f d 9 9 d d a d f V C f 7 , > ",
"N ) <.1.u. .x e > > > < , 6 f C A V f 7 , $ $ $ , , 1 $ # # # o > d [ 1.` 9 > > > 8 f / e.M.9.' v 9 , , 8 d V F D C b d 6 $ # $ ",
"| [ C f k c f 8 , 1 1 6 7 c ^ 1.' C 7 > $ # $ $ & # # $ $ # X @ $ 6 C :.u.<.F a a f S D ' 1./ d * # # # # > 6 f ~ C f 6 $ & X X ",
"l 9 1 > 6 a a 9 j f x ~ ( 1.M.u.` f 9 > # o X # o $ > > $ o X o 6 N ' u.a.c.a.u.t.t.u.t.t.' V 8 # o o @ + o > 6 C z 9 , $ # # # ",
", < $ < 6 a c V C | M.g.l.c.c.a.1.C d 6 > $ $ < 1 6 6 , # X & > 9 V [ y.b.+X<X+XK.N.M.1.[ l , # o o o o # $ , 9 N d 6 > * $ $ > ",
"# o # < 1 d z ~ ;.u.a.v.W.@X@X XU.3./ f 9 7 6 6 z V f 1 $ & $ 1 V / M.c.W..X(.k.$.[ ' ~ c 7 * & X X # # $ , 9 d e 6 1 > < 1 8 6 ",
"X # # 4 1 9 f C ] D.I.n.n.'.+X'.L.y.<./ V f f N ' ' A d 6 , 7 f ( 8.m.i.e.3.( ^ V f d 9 6 , $ & o # $ > 6 9 9 a 6 , 1 , 8 6 7 7 ",
"+ # $ , , 9 V / u.G.U.y.t.a.l.P.g.u.1.` V c f f x ` <./ C C C ( { u.p.1.| ' z a 4 > < $ > $ o o o $ > 9 d d a a 6 6 9 d 9 a f z ",
"X # $ 6 9 V ` | 9.| ^ ( { u.a.l.a.[ ^ V f a 6 , 6 k ( :.p.p.N.z.I.c.:./ C c 9 6 # o o o o X X o $ , 7 f b b f a d b N b z V ` | ",
"< > 6 d z ) ( _ C z V V / _ 1.t.' ~ f d , 1 $ $ , e z ^ i.K.Q.+Xv.t.&.A V 9 > # # o o X + X # $ 6 d c V V V z z C C D D ~ <.3.a.",
"7 a d V A ` C V f d 8 6 d D ' ( / z f 6 $ # o & > 6 b ( 1.N.K.).C.1.^ f q , & o o X X o o & > , d C ' ^ ~ C A G A ` ) _ 1.p.v.n.",
"V D ' ` C b d 7 6 , 4 1 d / ' ( A v 1 # X o O X , e S ( :.a.L.K.N.( C 9 > # X + X X o o # > 7 f / ( ( ' =.( ( } ( ' 8.3.a.v.K.B.",
":.3.1./ z d w 4 > $ < 6 a C | ' f 6 $ o X # # # 6 a V / 1.a.c.y.| ^ f 8 $ # X X # X o # < 9 N ` | <.1.<.<.| <.8.<.:.:.i.i.a.u.;.",
"L.g.:.~ f 8 > $ $ $ 1 9 C ' ' x k 6 $ o # $ , 7 d z / | e.i.a.u.( V d > # o o o o # $ 1 9 z / <.3.3.M.e.:.1.,.3.u.:.e.:.{ | &./ ",
"R.u.( C N 9 , , , 6 d V ' 8.( z f 7 , 1 8 9 f c C A ' | 1.u.p.e.) f 9 < # o o o o # 1 e c ^ [ u.N.#.#.r.t.y.p.u. .1.%.A C ` ( C ",
"3.;.~ C V b d a a S ` | [ [ / C x V f k k V V V S V z ^ <.3.1.[ ~ f 7 4 * & o o # 4 6 d x <.p.a.t.e.y.d.c.K.N.{ _ S v v A ( ` c ",
"<.[ ( ( ~ A D A ( 2.u.#.:.{ ;.%./ A V c z k d 9 9 7 d b G 7.| } / z 7 , $ * $ > 1 6 d l ( p.D.a.a.c.I.I.K.M.' x d 7 7 P | [ C b ",
"=.' ' 3.m.1.<.M.y.a.a.i.a.M.2.| D V d 7 6 6 , > > , 6 e f C ' | ' V f 9 7 6 9 9 d z / ;.p.K.c.g.K.I.I.D.<.Z 9 6 1 7 )  .:.[ / ` ",
"d z ~ ;.t.a.C.g.c.Y.Y.K.D.3.^ W f 7 > < < $ $ $ & # > , 7 z ~ ^ ` A ` Z V V z V ~ ( 3.D.L.v.n.!.L.P.a.[ V 9 > * 8 F 1.y.,.<.2. ."
};
